<?xml version="1.0" encoding="UTF-8"?>
<svg id="Laag_1" xmlns="http://www.w3.org/2000/svg" version="1.1" viewBox="0 0 53.3 66.4">
  <!-- Generator: Adobe Illustrator 30.0.0, SVG Export Plug-In . SVG Version: 2.1.1 Build 123)  -->
  <defs>
    <style>
      .st0 {
        fill: #ea5720;
      }

      .st1 {
        fill: #202020;
      }
    </style>
  </defs>
  <g>
    <path class="st1" d="M31,6.9l2,.2h.7c0,.1.8.3.8.3l.9.2.9.3h.4c0,0,1.4.5,1.4.5l.6.2,1.7.8.6.3,1.1.7.8.6.7.6,1.3,1.5.4.6.3.6.7,1.7.3.7v.4c.1,0,.4.7.4.7v.6c.1,0,.2.6.2.6v1.9c0,0-.1.7-.1.7v.8c-.1,0-.4.8-.4.8l-.2.7v.6c-.1,0-.4.6-.4.6l-.2.6-.4.6-.3.6-.4.6-.4.5-.4.5-.4.4-.5.4-.4.4-.5.4-.6.3-.5.4-.8.5-.8.4-.7.3-.9.3-.9.3-.7.3-.9.2-.9.2h-.7c0,0-.7.3-.7.3l-.3.2.3.4.9,1,.4.6.6,1.2.4.6.2.5.2.6.3.7v.7c.1,0,.4,1.2.4,1.2l.2.7v.6c.1,0,.3.9.3.9v.8c.1,0,.3.7.3.7v.6c0,0,.1.6.1.6v.6c.1,0,.4.6.4.6v.6c.1,0,.3.6.3.6v.6c.1,0,.4.6.4.6l.2.6.2.6.3.6.3.5.4.6.9,1.7.9,1,1.5,1.1.6.3.6.3.7.2h.7c0,.1.4.2.4.2h.7c0,.1.4.6.4.6v.6c.1,0,.1.6.1.6v.6c-.1,0-.4.6-.4.6l-.4.5-.6.4-.9.3h-.9c0,.1-.7,0-.7,0h-.7c0,0-.6-.2-.6-.2h-.7c0-.1-.7-.4-.7-.4l-.7-.3-.6-.3-.4-.3-.6-.4-.4-.3-.6-.5-.4-.4-.5-.6-.2-.3-.4-.6-.4-.6-.3-.5-.3-.6-.3-.6-.2-.6-.6-1.1-.2-.6v-.6c-.1,0-.4-.6-.4-.6v-.6c-.1,0-.4-.6-.4-.6v-.6c0,0-.4-1.2-.4-1.2v-.6c-.1,0-.3-.6-.3-.6l-.2-.6v-.6c-.1,0-.2-.6-.2-.6l-.4-1.9v-.7c-.1,0-.7-2.5-.7-2.5l-.2-.6-.3-.6-.3-.6-.4-.6-.2-.3-.5-.6-.5-.5-1-.8-.6-.3-.7-.3h-.7c0,0-.7-.2-.7-.2h-.6c0,0-.4.4-.4.4l-.3.6-.4,1.5v.7c-.1,0-.3.8-.3.8v.6c-.1,0-.6,1.2-.6,1.2v.6c-.1,0-.4.6-.4.6l-.2.9-.2.8-.2.7-.6,1.7v.6c-.1,0-.6,1.2-.6,1.2l-.2.6-.2.6-.2.6-.2.6-.4.9-.4,1-.4.8-.4,1.2-.4.6-.7.5-1,.4h-1.2l-1.1-.3-.9-.6-.4-.8v-.8c0,0,.4-.6.4-.6l.3-.6.5-1.2.2-.6.6-1.1.2-.6.2-.6.4-1.2v-.6c.1,0,.6-1.2.6-1.2v-.6c.1,0,.4-.6.4-.6v-.7c.1,0,.3-.4.3-.4v-.7c.1,0,.4-.8.4-.8v-.3c.1,0,.4-.8.4-.8v-.6c.1,0,.3-.5.3-.5v-.6c.1,0,.4-.8.4-.8l.4-1.5.2-.8.2-.6.3-1.2.2-.6v-.6c.1,0,.4-.6.4-.6v-.6c.1,0,.3-.6.3-.6l.2-.6.3-1.2.2-.6v-.6c.1,0,.9-2.1.9-2.1l.2-.8.3-.7.4-.8.4-.8.4-.6.4-.8.5-.9.5-.8.5-.6,1.5-1.5.9-.7.8-.5.7-.3h.7c0-.1.7-.1.7-.1h.7c0,0,.6.3.6.3l.6.4.4.5v.6c0,0-.2.6-.2.6l-1.1.7-.5.4-.4.5-.4.6-.3.6-.4.6-.4.5-.3.6-.3.6-.2.6-.4,1.2-.3.6-.2.6v.6c-.1,0-.6,1.2-.6,1.2v.6c-.1,0-.4.6-.4.6v.6c-.1,0-.4.6-.4.6v.6c-.1,0-.1.6-.1.6l.2.3h.6c0,.1.7.1.7.1h.7c0,0,.8-.1.8-.1h2c0-.1,1-.3,1-.3h.8c0-.1.7-.3.7-.3h.6c0-.1,1.2-.5,1.2-.5l.7-.2.7-.3.6-.3,1.2-.6.5-.3,1-.8.4-.4.4-.5.3-.6.4-.6.6-1.1.4-1.2v-.6c.1,0,.3-.8.3-.8v-.9c.1,0,0-.7,0-.7v-.6c0,0-.2-.6-.2-.6v-.6c0,0-.3-.6-.3-.6l-.2-.6-.7-1.1-.7-1-.5-.4-.5-.3-.6-.3-.5-.3-.6-.3-.9-.4-.9-.3-.7-.3h-.7c0-.1-.6-.3-.6-.3h-.7c0-.1-.7-.2-.7-.2h-.8c0,0-.4,0-.4,0h-1.5c0-.1-.7-.2-.7-.2l-3.3.3h-.7c0,.1-.8.3-.8.3h-.4c0,.1-.7.4-.7.4l-.7.2-1.9.7-.7.3-.6.3-.5.3-.6.3-.7.4-.5.4-.4.3-.5.5-.6.5-.4.5-.4.5-.7,1.1-.3.5-.3.6-.2.6-.2.6-.3,1.2v1.2c0,0,0,1.3,0,1.3v.6c.1,0,.3.6.3.6l.3.6.2.6.3.6.3.6.3.5.3.6v.6l-.2.6-.5.5-.5.4-.7.3h-.6c0,0-.7,0-.7,0l-.7-.5-.9-.7-.7-.6-.4-.6-.5-.8-.4-.8-.3-.6-.2-.6v-.6c-.1,0-.3-.9-.3-.9v-1.2c-.1,0-.1-1.1-.1-1.1v-.9c.1,0,.2-.7.2-.7l.3-1.2v-.6c.1,0,.4-.6.4-.6l.2-.6.3-.6.7-1.1.6-.8.6-.7,1.3-1.5.4-.4,2-1.7.5-.3.6-.3.7-.3.8-.3.8-.4.7-.3.6-.2.7-.2,2.5-.8h.7c0-.1,1.3-.3,1.3-.3l1.2-.3h1.3c0-.1.8-.2.8-.2h2.5c0-.1.7-.1.7-.1h.4c0,0,.8,0,.8,0h.7M31,5.6h-.1s-.6,0-.6,0h-1c0,0-.1,0-.1,0h-.9s-2.1.1-2.1.1h-.5s-.8,0-.8,0h0s0,0,0,0h-1.3c0,.1,0,.1,0,.1h0s-1.2.3-1.2.3l-1.3.2h0s0,0,0,0h-.7c0,.1,0,.2,0,.2h0s-2.5.9-2.5.9l-.6.2h0s0,0,0,0l-.6.2h0s0,0,0,0l-.7.3h0s0,0,0,0l-.8.4-.8.3h0s0,0,0,0l-.6.3-.6.3h0s0,0,0,0l-.5.3h0s0,0,0,0l-2,1.7h0s0,0,0,0l-.4.4h0s0,0,0,0l-1.3,1.5h0s0,0,0,0l-.6.7h0s0,0,0,0l-.6.8h0s0,0,0,0l-.7,1.1h0c0,0,0,.1,0,.1l-.3.6h0c0,0,0,.1,0,.1l-.2.6h0s0,0,0,0l-.2.6h0s0,0,0,0v.6c-.1,0-.1,0-.1,0h0s-.3,1.3-.3,1.3h0c0,0,0,.2,0,.2v.7c0,0-.2.9-.2.9h0v1.3h0c0,0,0,.2,0,.2v1.2c.1,0,.1,0,.1,0h0s.1.9.1.9h0s0,0,0,0v.6c.1,0,.2,0,.2,0h0c0,0,.2.6.2.6h0s0,0,0,0l.3.6.4.8h0c0,0,0,.2,0,.2l.5.8h0s0,0,0,0l.4.6h0c0,0,0,.1,0,.1l.7.6h0c0,0,0,.1,0,.1l.9.7h0s0,0,0,0l.7.5h.2c0,.1.3.2.3.2h.7c0,.1.2.2.2.2h.2s.6,0,.6,0h.2s.2,0,.2,0l.7-.3h.2c0,0,.1-.2.1-.2l.5-.4h0s0,0,0,0l.5-.5.2-.2v-.3c.1,0,.3-.6.3-.6v-.2c0,0,0-.2,0-.2v-1.2c-.1,0-.4-.6-.4-.6h0s0,0,0,0l-.3-.5-.3-.5-.3-.6-.2-.5h0s0,0,0,0l-.2-.5v-.4c-.1,0-.2-.5-.2-.5v-1.6c0,0,0,0,0,0h0v-.5l.2-1,.2-.5.2-.5.2-.5.2-.4.7-1,.3-.4.3-.4.5-.4h0s0,0,0,0l.5-.4.4-.3.4-.4.6-.4h0s0,0,0,0l.6-.3.5-.2.5-.2.6-.3,1.8-.7.6-.2h0s0,0,0,0l.7-.3h.3c0-.1.7-.2.7-.2h0s0,0,0,0h.6c0-.1,3.1-.4,3.1-.4h.5c0,0,1.5.2,1.5.2h0s0,0,0,0h1.1c0,0,.6.1.6.1h.6c0,.1.6.3.6.3h0s0,0,0,0h.5c0,.1.5.3.5.3h0s0,0,0,0l.8.3.9.4.5.3.5.2.5.3.4.3.3.3.6.8.6,1,.2.4.2.5v.5c0,0,0,0,0,0h0c0,0,.1.6.1.6v.5c0,0,.1.5.1.5v.7c-.1,0-.3.8-.3.8v.5c-.1,0-.5,1.1-.5,1.1l-.5,1-.3.5h0c0,0,0,.1,0,.1l-.2.4-.3.3-.4.3-.9.8-.4.3-1.1.6-.5.2-.6.2-.6.2-1.1.3h-.5c0,.1-.6.3-.6.3h-.8c0,.1-1,.3-1,.3h-1.9c0,.1-.8.2-.8.2h0s0,0,0,0h-.6c0,0,.2-.4.2-.4h0c0,0,0-.1,0-.1v-.6c.1,0,.3-.6.3-.6h0c0,0,0-.1,0-.1v-.6c.1,0,.5-1.2.5-1.2h0s0,0,0,0v-.5c.1,0,.3-.5.3-.5l.3-.6h0c0,0,0-.1,0-.1l.4-1.2.2-.5.3-.6.2-.4.3-.4h0s0,0,0,0l.4-.6h0c0,0,0-.1,0-.1l.2-.4.3-.4.3-.4.4-.3,1-.7.3-.2.2-.3.3-.6.2-.4v-.4c0,0-.1-.6-.1-.6v-.3s-.2-.3-.2-.3l-.4-.5v-.2c-.1,0-.3-.1-.3-.1l-.6-.4h-.1c0-.1-.2-.2-.2-.2l-.6-.2h-.2c0,0-.2,0-.2,0h-.7c0,0,0,0,0,0h-1s-.7.2-.7.2h-.1s-.1,0-.1,0l-.7.3h0s0,0,0,0l-.8.5h0s0,0,0,0l-.9.7h0s0,0,0,0l-1.5,1.5h0s0,0,0,0l-.5.6h0c0,0,0,.2,0,.2l-.5.8h0s0,0,0,0l-.5.9h0c0,0,0,.1,0,.1l-.3.8-.3.6h0s0,0,0,0l-.3.7-.4.7h0c0,0,0,.1,0,.1l-.3.7h0c0,0,0,.1,0,.1l-.2.7-.7,2h0c0,0,0,.1,0,.1v.6c-.1,0-.3.6-.3.6h0c0,0,0,.1,0,.1l-.3,1.2-.2.6h0c0,0,0,.1,0,.1v.6c-.1,0-.3.5-.3.5l-.2.6h0c0,0,0,.1,0,.1v.6c-.1,0-.3.6-.3.6h0c0,0,0,.1,0,.1l-.3,1.2-.2.6h0s0,0,0,0l-.2.8-.4,1.4h0s0,0,0,0l-.2.8h0s0,0,0,0v.6c-.1,0-.3.4-.3.4h0s0,0,0,0v.6c-.1,0-.3.7-.3.7v.3c-.1,0-.1,0-.1,0h0c0,0-.2.8-.2.8h0s0,0,0,0v.6c-.1,0-.2.3-.2.3h0c0,0,0,.2,0,.2v.6c-.1,0-.3.5-.3.5h0c0,0,0,.1,0,.1v.5c-.1,0-.5,1.1-.5,1.1h0c0,0,0,.2,0,.2v.6c-.1,0-.5,1.2-.5,1.2l-.2.5h0s0,0,0,0l-.2.5-.5,1h0c0,0,0,.2,0,.2l-.2.6-.5,1.1-.3.5h0s0,0,0,0l-.3.6v.2c0,0-.1.2-.1.2v.8c0,0-.1.4-.1.4l.2.3.4.8.2.3.3.2.9.6h.2c0,.1.2.2.2.2l1.1.3h.2s.2,0,.2,0h1.7c0,0,1-.5,1-.5h.1s.1-.1.1-.1l.7-.5h.2c0-.1.1-.4.1-.4l.4-.6h0c0-.1,0-.3,0-.3l.4-1.2.3-.8.4-1.1.4-.9h0s0,0,0,0l.2-.6.2-.5h0s0,0,0,0l.2-.6.2-.5h0s0,0,0,0l.4-1.2h0c0,0,0-.1,0-.1v-.6c.1,0,.7-1.6.7-1.6h0s0,0,0,0l.2-.7h0s0,0,0,0l.2-.8h0s0,0,0,0l.2-.8.2-.6h0s0-.1,0-.1v-.5c.1,0,.6-1.2.6-1.2h0s0,0,0,0v-.6c.1,0,.2,0,.2,0h0s.1-.8.1-.8v-.6c.1,0,.5-1.3.5-1.3h0c0-.1.5,0,.5,0h0s0,0,0,0h.5s.5.2.5.2l.4.2.9.7.4.4.4.5.2.3h0s0,0,0,0l.4.5.2.5h0s0,0,0,0l.2.5.2.5.6,2.4v.7c.1,0,.1,0,.1,0h0s.4,1.8.4,1.8v.5c0,0,0,0,0,0h0c0,0,.1.7.1.7h0c0,0,0,.1,0,.1l.2.6v.6c.1,0,.1,0,.1,0h0s.1.6.1.6l.3,1.2v.5c0,0,0,.1,0,.1h0c0,.1.2.7.2.7v.6c.1,0,.2,0,.2,0h0c0,0,.2.6.2.6v.5c.1,0,.1,0,.1,0h0c0,0,.2.7.2.7h0c0,0,0,.2,0,.2l.5,1,.2.5h0s0,0,0,0l.3.6h0s0,0,0,0l.3.6h0s0,0,0,0l.3.5h0c0,0,0,.1,0,.1l.4.5.4.6h0s0,0,0,0l.2.3.5.6h0c0,0,0,.1,0,.1l.4.4h0s0,0,0,0l.6.5h0s0,0,0,0l.4.3h0s0,0,0,0l.6.4.4.3h.1c0,0,.1.2.1.2l.6.3.6.3h0s0,0,0,0l.7.3h.1s.1,0,.1,0h.6c0,.1.6.3.6.3h0s0,0,0,0h.7c0,0,.7.1.7.1h.2s.2,0,.2,0h.9c0-.1,0-.2,0-.2h0s.9-.3.9-.3h.2c0,0,.2-.2.2-.2l.6-.4h.1c0,0,0-.2,0-.2l.4-.5h.1c0-.1,0-.3,0-.3l.3-.6h0c0-.1,0-.3,0-.3v-.6c.1,0,.2-.1.2-.1h0v-.7h0c0-.1,0-.3,0-.3v-.6c-.1,0-.2-.3-.2-.3l-.2-.2-.4-.4-.3-.3h-.4c0,0-.7-.2-.7-.2h0s0,0,0,0h-.4c0,0-.6-.2-.6-.2l-.5-.2-.4-.2-.5-.3-1.3-1-.7-.8-.8-1.5h0c0,0,0-.1,0-.1l-.3-.5-.3-.4-.2-.4-.2-.5h0s0,0,0,0l-.2-.5-.2-.5v-.6c-.1,0-.1,0-.1,0h0s-.1-.6-.1-.6v-.6c-.1,0-.2,0-.2,0h0c0,0-.2-.6-.2-.6v-.5c-.1,0-.2-.5-.2-.5v-.6c0,0,0,0,0,0h0c0,0-.1-.7-.1-.7v-.8c-.1,0-.3-.9-.3-.9h0s0,0,0,0v-.6c-.1,0-.2,0-.2,0h0s-.2-.7-.2-.7l-.3-1.2v-.7c-.1,0-.2-.1-.2-.1h0c0-.1-.3-.8-.3-.8l-.2-.6h0c0,0,0-.1,0-.1l-.2-.5h0c0,0,0-.1,0-.1l-.3-.6-.6-1.2h0c0,0,0-.2,0-.2l-.3-.5.6-.2.9-.2h.1s.1,0,.1,0l.6-.3.8-.3.8-.3h0s0,0,0,0l.7-.3h0s0,0,0,0l.8-.4h0s0,0,0,0l.8-.5h0s0-.1,0-.1l.4-.4.5-.3h0s0-.1,0-.1l.5-.4h0s0,0,0,0l.4-.4.5-.4h0s0,0,0,0l.4-.4h0s0,0,0,0l.4-.5h0s0,0,0,0l.4-.5h0s0,0,0,0l.4-.6h0c0,0,0-.1,0-.1l.3-.5.3-.5h0c0-.1,0-.2,0-.2l.2-.6h0s0,0,0,0l.2-.6h0s0,0,0,0v-.5c.1,0,.3-.7.3-.7h0s0,0,0,0l.2-.8h0c0,0,0-.1,0-.1v-.8c.1,0,.2,0,.2,0h0s0-.7,0-.7v-.6c0,0,0,0,0,0h0v-1.3h0c0,0,0-.1,0-.1v-.6c0,0,0,0,0,0h0c0,0-.1-.7-.1-.7h0s0,0,0,0l-.2-.7h0s0,0,0,0v-.4c-.1,0-.2,0-.2,0h0s-.3-.7-.3-.7l-.7-1.7h0s0,0,0,0l-.3-.6h0c0-.1,0-.2,0-.2l-.4-.6h0s0,0,0,0l-1.3-1.5h0c0,0,0-.2,0-.2l-.7-.6h0s0,0,0,0l-.8-.6h0s0,0,0,0l-1.1-.7h0s0,0,0,0l-.6-.3h0s0,0,0,0l-1.7-.8h0s0,0,0,0l-.6-.2h0s0,0,0,0l-1.4-.4h0s0,0,0,0h-.3c0,0-.8-.3-.8-.3h0s0,0,0,0l-.9-.2h0s0,0,0,0h-.8c0-.1-.6-.3-.6-.3h0s0,0,0,0l-2-.2h-.1Z"/>
    <g>
      <path class="st1" d="M31,6.9l2,.2h.7c0,.1.8.3.8.3l.9.2.9.3h.4c0,0,1.4.5,1.4.5l.6.2,1.7.8.6.3,1.1.7.8.6.7.6,1.3,1.5.4.6.3.6.7,1.7.3.7v.4c.1,0,.4.7.4.7v.6c.1,0,.2.6.2.6v1.9c0,0-.1.7-.1.7v.8c-.1,0-.4.8-.4.8l-.2.7v.6c-.1,0-.4.6-.4.6l-.2.6-.4.6-.3.6-.4.6-.4.5-.4.5-.4.4-.5.4-.4.4-.5.4-.6.3-.5.4-.8.5-.8.4-.7.3-.9.3-.9.3-.7.3-.9.2-.9.2h-.7c0,0-.7.3-.7.3l-.3.2.3.4.9,1,.4.6.6,1.2.4.6.2.5.2.6.3.7v.7c.1,0,.4,1.2.4,1.2l.2.7v.6c.1,0,.3.9.3.9v.8c.1,0,.3.7.3.7v.6c0,0,.1.6.1.6v.6c.1,0,.4.6.4.6v.6c.1,0,.3.6.3.6v.6c.1,0,.4.6.4.6l.2.6.2.6.3.6.3.5.4.6.9,1.7.9,1,1.5,1.1.6.3.6.3.7.2h.7c0,.1.4.2.4.2h.7c0,.1.4.6.4.6v.6c.1,0,.1.6.1.6v.6c-.1,0-.4.6-.4.6l-.4.5-.6.4-.9.3h-.9c0,.1-.7,0-.7,0h-.7c0,0-.6-.2-.6-.2h-.7c0-.1-.7-.4-.7-.4l-.7-.3-.6-.3-.4-.3-.6-.4-.4-.3-.6-.5-.4-.4-.5-.6-.2-.3-.4-.6-.4-.6-.3-.5-.3-.6-.3-.6-.2-.6-.6-1.1-.2-.6v-.6c-.1,0-.4-.6-.4-.6v-.6c-.1,0-.4-.6-.4-.6v-.6c0,0-.4-1.2-.4-1.2v-.6c-.1,0-.3-.6-.3-.6l-.2-.6v-.6c-.1,0-.2-.6-.2-.6l-.4-1.9v-.7c-.1,0-.7-2.5-.7-2.5l-.2-.6-.3-.6-.3-.6-.4-.6-.2-.3-.5-.6-.5-.5-1-.8-.6-.3-.7-.3h-.7c0,0-.7-.2-.7-.2h-.6c0,0-.4.4-.4.4l-.3.6-.4,1.5v.7c-.1,0-.3.8-.3.8v.6c-.1,0-.6,1.2-.6,1.2v.6c-.1,0-.4.6-.4.6l-.2.9-.2.8-.2.7-.6,1.7v.6c-.1,0-.6,1.2-.6,1.2l-.2.6-.2.6-.2.6-.2.6-.4.9-.4,1-.4.8-.4,1.2-.4.6-.7.5-1,.4h-1.2l-1.1-.3-.9-.6-.4-.8v-.8c0,0,.4-.6.4-.6l.3-.6.5-1.2.2-.6.6-1.1.2-.6.2-.6.4-1.2v-.6c.1,0,.6-1.2.6-1.2v-.6c.1,0,.4-.6.4-.6v-.7c.1,0,.3-.4.3-.4v-.7c.1,0,.4-.8.4-.8v-.3c.1,0,.4-.8.4-.8v-.6c.1,0,.3-.5.3-.5v-.6c.1,0,.4-.8.4-.8l.4-1.5.2-.8.2-.6.3-1.2.2-.6v-.6c.1,0,.4-.6.4-.6v-.6c.1,0,.3-.6.3-.6l.2-.6.3-1.2.2-.6v-.6c.1,0,.9-2.1.9-2.1l.2-.8.3-.7.4-.8.4-.8.4-.6.4-.8.5-.9.5-.8.5-.6,1.5-1.5.9-.7.8-.5.7-.3h.7c0-.1.7-.1.7-.1h.7c0,0,.6.3.6.3l.6.4.4.5v.6c0,0-.2.6-.2.6l-1.1.7-.5.4-.4.5-.4.6-.3.6-.4.6-.4.5-.3.6-.3.6-.2.6-.4,1.2-.3.6-.2.6v.6c-.1,0-.6,1.2-.6,1.2v.6c-.1,0-.4.6-.4.6v.6c-.1,0-.4.6-.4.6v.6c-.1,0-.1.6-.1.6l.2.3h.6c0,.1.7.1.7.1h.7c0,0,.8-.1.8-.1h2c0-.1,1-.3,1-.3h.8c0-.1.7-.3.7-.3h.6c0-.1,1.2-.5,1.2-.5l.7-.2.7-.3.6-.3,1.2-.6.5-.3,1-.8.4-.4.4-.5.3-.6.4-.6.6-1.1.4-1.2v-.6c.1,0,.3-.8.3-.8v-.9c.1,0,0-.7,0-.7v-.6c0,0-.2-.6-.2-.6v-.6c0,0-.3-.6-.3-.6l-.2-.6-.7-1.1-.7-1-.5-.4-.5-.3-.6-.3-.5-.3-.6-.3-.9-.4-.9-.3-.7-.3h-.7c0-.1-.6-.3-.6-.3h-.7c0-.1-.7-.2-.7-.2h-.8c0,0-.4,0-.4,0h-1.5c0-.1-.7-.2-.7-.2l-3.3.3h-.7c0,.1-.8.3-.8.3h-.4c0,.1-.7.4-.7.4l-.7.2-1.9.7-.7.3-.6.3-.5.3-.6.3-.7.4-.5.4-.4.3-.5.5-.6.5-.4.5-.4.5-.7,1.1-.3.5-.3.6-.2.6-.2.6-.3,1.2v1.2c0,0,0,1.3,0,1.3v.6c.1,0,.3.6.3.6l.3.6.2.6.3.6.3.6.3.5.3.6v.6l-.2.6-.5.5-.5.4-.7.3h-.6c0,0-.7,0-.7,0l-.7-.5-.9-.7-.7-.6-.4-.6-.5-.8-.4-.8-.3-.6-.2-.6v-.6c-.1,0-.3-.9-.3-.9v-1.2c-.1,0-.1-1.1-.1-1.1v-.9c.1,0,.2-.7.2-.7l.3-1.2v-.6c.1,0,.4-.6.4-.6l.2-.6.3-.6.7-1.1.6-.8.6-.7,1.3-1.5.4-.4,2-1.7.5-.3.6-.3.7-.3.8-.3.8-.4.7-.3.6-.2.7-.2,2.5-.8h.7c0-.1,1.3-.3,1.3-.3l1.2-.3h1.3c0-.1.8-.2.8-.2h2.5c0-.1.7-.1.7-.1h.4c0,0,.8,0,.8,0h.7M31,5.6h-.1s-.6,0-.6,0h-1c0,0-.1,0-.1,0h-.9s-2.1.1-2.1.1h-.5s-.8,0-.8,0h0s0,0,0,0h-1.3c0,.1,0,.1,0,.1h0s-1.2.3-1.2.3l-1.3.2h0s0,0,0,0h-.7c0,.1,0,.2,0,.2h0s-2.5.9-2.5.9l-.6.2h0s0,0,0,0l-.6.2h0s0,0,0,0l-.7.3h0s0,0,0,0l-.8.4-.8.3h0s0,0,0,0l-.6.3-.6.3h0s0,0,0,0l-.5.3h0s0,0,0,0l-2,1.7h0s0,0,0,0l-.4.4h0s0,0,0,0l-1.3,1.5h0s0,0,0,0l-.6.7h0s0,0,0,0l-.6.8h0s0,0,0,0l-.7,1.1h0c0,0,0,.1,0,.1l-.3.6h0c0,0,0,.1,0,.1l-.2.6h0s0,0,0,0l-.2.6h0s0,0,0,0v.6c-.1,0-.1,0-.1,0h0s-.3,1.3-.3,1.3h0c0,0,0,.2,0,.2v.7c0,0-.2.9-.2.9h0v1.3h0c0,0,0,.2,0,.2v1.2c.1,0,.1,0,.1,0h0s.1.9.1.9h0s0,0,0,0v.6c.1,0,.2,0,.2,0h0c0,0,.2.6.2.6h0s0,0,0,0l.3.6.4.8h0c0,0,0,.2,0,.2l.5.8h0s0,0,0,0l.4.6h0c0,0,0,.1,0,.1l.7.6h0c0,0,0,.1,0,.1l.9.7h0s0,0,0,0l.7.5h.2c0,.1.3.2.3.2h.7c0,.1.2.2.2.2h.2s.6,0,.6,0h.2s.2,0,.2,0l.7-.3h.2c0,0,.1-.2.1-.2l.5-.4h0s0,0,0,0l.5-.5.2-.2v-.3c.1,0,.3-.6.3-.6v-.2c0,0,0-.2,0-.2v-1.2c-.1,0-.4-.6-.4-.6h0s0,0,0,0l-.3-.5-.3-.5-.3-.6-.2-.5h0s0,0,0,0l-.2-.5v-.4c-.1,0-.2-.5-.2-.5v-1.6c0,0,0,0,0,0h0v-.5l.2-1,.2-.5.2-.5.2-.5.2-.4.7-1,.3-.4.3-.4.5-.4h0s0,0,0,0l.5-.4.4-.3.4-.4.6-.4h0s0,0,0,0l.6-.3.5-.2.5-.2.6-.3,1.8-.7.6-.2h0s0,0,0,0l.7-.3h.3c0-.1.7-.2.7-.2h0s0,0,0,0h.6c0-.1,3.1-.4,3.1-.4h.5c0,0,1.5.2,1.5.2h0s0,0,0,0h1.1c0,0,.6.1.6.1h.6c0,.1.6.3.6.3h0s0,0,0,0h.5c0,.1.5.3.5.3h0s0,0,0,0l.8.3.9.4.5.3.5.2.5.3.4.3.3.3.6.8.6,1,.2.4.2.5v.5c0,0,0,0,0,0h0c0,0,.1.6.1.6v.5c0,0,.1.5.1.5v.7c-.1,0-.3.8-.3.8v.5c-.1,0-.5,1.1-.5,1.1l-.5,1-.3.5h0c0,0,0,.1,0,.1l-.2.4-.3.3-.4.3-.9.8-.4.3-1.1.6-.5.2-.6.2-.6.2-1.1.3h-.5c0,.1-.6.3-.6.3h-.8c0,.1-1,.3-1,.3h-1.9c0,.1-.8.2-.8.2h0s0,0,0,0h-.6c0,0,.2-.4.2-.4h0c0,0,0-.1,0-.1v-.6c.1,0,.3-.6.3-.6h0c0,0,0-.1,0-.1v-.6c.1,0,.5-1.2.5-1.2h0s0,0,0,0v-.5c.1,0,.3-.5.3-.5l.3-.6h0c0,0,0-.1,0-.1l.4-1.2.2-.5.3-.6.2-.4.3-.4h0s0,0,0,0l.4-.6h0c0,0,0-.1,0-.1l.2-.4.3-.4.3-.4.4-.3,1-.7.3-.2.2-.3.3-.6.2-.4v-.4c0,0-.1-.6-.1-.6v-.3s-.2-.3-.2-.3l-.4-.5v-.2c-.1,0-.3-.1-.3-.1l-.6-.4h-.1c0-.1-.2-.2-.2-.2l-.6-.2h-.2c0,0-.2,0-.2,0h-.7c0,0,0,0,0,0h-1s-.7.2-.7.2h-.1s-.1,0-.1,0l-.7.3h0s0,0,0,0l-.8.5h0s0,0,0,0l-.9.7h0s0,0,0,0l-1.5,1.5h0s0,0,0,0l-.5.6h0c0,0,0,.2,0,.2l-.5.8h0s0,0,0,0l-.5.9h0c0,0,0,.1,0,.1l-.3.8-.3.6h0s0,0,0,0l-.3.7-.4.7h0c0,0,0,.1,0,.1l-.3.7h0c0,0,0,.1,0,.1l-.2.7-.7,2h0c0,0,0,.1,0,.1v.6c-.1,0-.3.6-.3.6h0c0,0,0,.1,0,.1l-.3,1.2-.2.6h0c0,0,0,.1,0,.1v.6c-.1,0-.3.5-.3.5l-.2.6h0c0,0,0,.1,0,.1v.6c-.1,0-.3.6-.3.6h0c0,0,0,.1,0,.1l-.3,1.2-.2.6h0s0,0,0,0l-.2.8-.4,1.4h0s0,0,0,0l-.2.8h0s0,0,0,0v.6c-.1,0-.3.4-.3.4h0s0,0,0,0v.6c-.1,0-.3.7-.3.7v.3c-.1,0-.1,0-.1,0h0c0,0-.2.8-.2.8h0s0,0,0,0v.6c-.1,0-.2.3-.2.3h0c0,0,0,.2,0,.2v.6c-.1,0-.3.5-.3.5h0c0,0,0,.1,0,.1v.5c-.1,0-.5,1.1-.5,1.1h0c0,0,0,.2,0,.2v.6c-.1,0-.5,1.2-.5,1.2l-.2.5h0s0,0,0,0l-.2.5-.5,1h0c0,0,0,.2,0,.2l-.2.6-.5,1.1-.3.5h0s0,0,0,0l-.3.6v.2c0,0-.1.2-.1.2v.8c0,0-.1.4-.1.4l.2.3.4.8.2.3.3.2.9.6h.2c0,.1.2.2.2.2l1.1.3h.2s.2,0,.2,0h1.7c0,0,1-.5,1-.5h.1s.1-.1.1-.1l.7-.5h.2c0-.1.1-.4.1-.4l.4-.6h0c0-.1,0-.3,0-.3l.4-1.2.3-.8.4-1.1.4-.9h0s0,0,0,0l.2-.6.2-.5h0s0,0,0,0l.2-.6.2-.5h0s0,0,0,0l.4-1.2h0c0,0,0-.1,0-.1v-.6c.1,0,.7-1.6.7-1.6h0s0,0,0,0l.2-.7h0s0,0,0,0l.2-.8h0s0,0,0,0l.2-.8.2-.6h0s0-.1,0-.1v-.5c.1,0,.6-1.2.6-1.2h0s0,0,0,0v-.6c.1,0,.2,0,.2,0h0s.1-.8.1-.8v-.6c.1,0,.5-1.3.5-1.3h0c0-.1.5,0,.5,0h0s0,0,0,0h.5s.5.2.5.2l.4.2.9.7.4.4.4.5.2.3h0s0,0,0,0l.4.5.2.5h0s0,0,0,0l.2.5.2.5.6,2.4v.7c.1,0,.1,0,.1,0h0s.4,1.8.4,1.8v.5c0,0,0,0,0,0h0c0,0,.1.7.1.7h0c0,0,0,.1,0,.1l.2.6v.6c.1,0,.1,0,.1,0h0s.1.6.1.6l.3,1.2v.5c0,0,0,.1,0,.1h0c0,.1.2.7.2.7v.6c.1,0,.2,0,.2,0h0c0,0,.2.6.2.6v.5c.1,0,.1,0,.1,0h0c0,0,.2.7.2.7h0c0,0,0,.2,0,.2l.5,1,.2.5h0s0,0,0,0l.3.6h0s0,0,0,0l.3.6h0s0,0,0,0l.3.5h0c0,0,0,.1,0,.1l.4.5.4.6h0s0,0,0,0l.2.3.5.6h0c0,0,0,.1,0,.1l.4.4h0s0,0,0,0l.6.5h0s0,0,0,0l.4.3h0s0,0,0,0l.6.4.4.3h.1c0,0,.1.2.1.2l.6.3.6.3h0s0,0,0,0l.7.3h.1s.1,0,.1,0h.6c0,.1.6.3.6.3h0s0,0,0,0h.7c0,0,.7.1.7.1h.2s.2,0,.2,0h.9c0-.1,0-.2,0-.2h0s.9-.3.9-.3h.2c0,0,.2-.2.2-.2l.6-.4h.1c0,0,0-.2,0-.2l.4-.5h.1c0-.1,0-.3,0-.3l.3-.6h0c0-.1,0-.3,0-.3v-.6c.1,0,.2-.1.2-.1h0v-.7h0c0-.1,0-.3,0-.3v-.6c-.1,0-.2-.3-.2-.3l-.2-.2-.4-.4-.3-.3h-.4c0,0-.7-.2-.7-.2h0s0,0,0,0h-.4c0,0-.6-.2-.6-.2l-.5-.2-.4-.2-.5-.3-1.3-1-.7-.8-.8-1.5h0c0,0,0-.1,0-.1l-.3-.5-.3-.4-.2-.4-.2-.5h0s0,0,0,0l-.2-.5-.2-.5v-.6c-.1,0-.1,0-.1,0h0s-.1-.6-.1-.6v-.6c-.1,0-.2,0-.2,0h0c0,0-.2-.6-.2-.6v-.5c-.1,0-.2-.5-.2-.5v-.6c0,0,0,0,0,0h0c0,0-.1-.7-.1-.7v-.8c-.1,0-.3-.9-.3-.9h0s0,0,0,0v-.6c-.1,0-.2,0-.2,0h0s-.2-.7-.2-.7l-.3-1.2v-.7c-.1,0-.2-.1-.2-.1h0c0-.1-.3-.8-.3-.8l-.2-.6h0c0,0,0-.1,0-.1l-.2-.5h0c0,0,0-.1,0-.1l-.3-.6-.6-1.2h0c0,0,0-.2,0-.2l-.3-.5.6-.2.9-.2h.1s.1,0,.1,0l.6-.3.8-.3.8-.3h0s0,0,0,0l.7-.3h0s0,0,0,0l.8-.4h0s0,0,0,0l.8-.5h0s0-.1,0-.1l.4-.4.5-.3h0s0-.1,0-.1l.5-.4h0s0,0,0,0l.4-.4.5-.4h0s0,0,0,0l.4-.4h0s0,0,0,0l.4-.5h0s0,0,0,0l.4-.5h0s0,0,0,0l.4-.6h0c0,0,0-.1,0-.1l.3-.5.3-.5h0c0-.1,0-.2,0-.2l.2-.6h0s0,0,0,0l.2-.6h0s0,0,0,0v-.5c.1,0,.3-.7.3-.7h0s0,0,0,0l.2-.8h0c0,0,0-.1,0-.1v-.8c.1,0,.2,0,.2,0h0s0-.7,0-.7v-.6c0,0,0,0,0,0h0v-1.3h0c0,0,0-.1,0-.1v-.6c0,0,0,0,0,0h0c0,0-.1-.7-.1-.7h0s0,0,0,0l-.2-.7h0s0,0,0,0v-.4c-.1,0-.2,0-.2,0h0s-.3-.7-.3-.7l-.7-1.7h0s0,0,0,0l-.3-.6h0c0-.1,0-.2,0-.2l-.4-.6h0s0,0,0,0l-1.3-1.5h0c0,0,0-.2,0-.2l-.7-.6h0s0,0,0,0l-.8-.6h0s0,0,0,0l-1.1-.7h0s0,0,0,0l-.6-.3h0s0,0,0,0l-1.7-.8h0s0,0,0,0l-.6-.2h0s0,0,0,0l-1.4-.4h0s0,0,0,0h-.3c0,0-.8-.3-.8-.3h0s0,0,0,0l-.9-.2h0s0,0,0,0h-.8c0-.1-.6-.3-.6-.3h0s0,0,0,0l-2-.2h-.1Z"/>
      <g>
        <path class="st1" d="M31.4,6c-.5,0-.3,0-.4,0,.8,0,.4,0,.4,0Z"/>
        <path class="st1" d="M39.2,7.6s0,0,0,0c0,0,0,0,0,0h0s1.1.5,1.1.5l-1-.4Z"/>
        <path class="st1" d="M45.3,11.8c-.2-.2-.5-.6-.9-1.1-.7-.5-1.5-1.1-2.2-1.5h-.2c0-.1-.5-.4-.5-.4.9.6,2,1.3,2.9,1.9.3.4.7.8.9,1Z"/>
        <path class="st1" d="M47.1,15.2c0-.2.4.8-.4-.9,0,0,0,.1,0,.2,0,.1.2.4.3.7Z"/>
        <path class="st1" d="M46.8,14.5c-.3-.7.2.5,0,0h0Z"/>
        <path class="st1" d="M48,17.9l-.2-.6v-.4c-.1,0,0,.3,0,.4,0,.3.1.6,0,.3,0,.1,0,.3,0,.4,0,.2,0,.4,0,.3,0,0,0-.2,0-.3,0,0,0,0,0-.1Z"/>
        <path class="st1" d="M48.2,18.8h0s0-.5,0-.5c0,0,0,.2,0,.5,0,0,0,0,0,0Z"/>
        <path class="st1" d="M47.9,17.2h0c0,0,.2.8.2.8v.3c0-.1,0-.2,0-.3,0,0,0-.1,0-.2,0,0,0-.1-.1-.5,0,0,0,0,0,0Z"/>
        <path class="st1" d="M47.7,16.6c0-.1,0-.3-.1-.4,0,0,0-.1,0-.2,0,0,0,0,0-.1,0-.1,0,0,.2.4-.3-.9-.6-1.3-.5-1.2,0,0,0,.2.2.4,0,.1.1.3.2.5,0,.1.1.4.2.6Z"/>
        <path class="st1" d="M45.6,12l-.5-.6-.5-.5c.2.2,1,1.1,1,1.1Z"/>
        <path class="st1" d="M47.3,24.1c0,0,.1-.3.2-.4v-.4c.1,0,.2-.2.2-.4,0,.3-.4,1.1-.4,1.1Z"/>
        <path class="st1" d="M47.5,23.7c0,.3-.1.6-.2.8v.3c0-.1,0-.2,0-.3.2-.7.2-.9.2-.8Z"/>
        <polygon class="st1" points="48.3 19 48.3 18.8 48.2 18 48 17.3 48 17.2 48 17.3 48.2 18 48.3 18.8 48.3 19.4 48.3 19"/>
        <path class="st1" d="M45.4,27.9l.2-.3v-.3c.1,0,0,.2,0,.2,0,0,0,.1-.1.2l-.3.4h-.1c0,.1.1,0,.1,0l.2-.3Z"/>
        <path class="st1" d="M43.4,29.9c.2-.2,0,0-.1,0,0,0-.2.1,0,0-.2.2-.4.3-.6.5-.2.1-.4.2-.6.4-.2.2-.3.3-.5.4.2-.1.3-.3.5-.4.2-.1.4-.2.6-.3.2-.1.4-.3.6-.5,0,0,0,0,0,0Z"/>
        <path class="st1" d="M40.8,31.8c.3-.2.5-.4.8-.5h0s0,0,0,0l-.4.3c-.1,0-.3.2-.4.3Z"/>
        <path class="st1" d="M46.4,26.6c0,0-.1.2-.3.5,0,0-.1.2-.2.3l.2-.2s0,0,0,0c0-.1.1-.3.2-.4Z"/>
        <path class="st1" d="M46.2,26.9h0s0,.1,0,.1c-.1.2-.3.5-.5.7.1-.2.3-.5.5-.7h0Z"/>
        <path class="st1" d="M46.4,26.4h0c0,0,0,.1,0,.1,0,0,0,0,0,0,0,0,0,0,0,0Z"/>
        <path class="st1" d="M48,22c0,.1,0,.3,0,.5-.1.6-.3,1.3,0,.3,0-.4,0,0,0-.2,0,0,0-.2,0-.5Z"/>
        <path class="st1" d="M46.8,26h0c0,0,.2-.6.2-.6,0-.2.1-.3.2-.5,0,0-.1.2,0-.1,0,.2-.1.4-.2.6l-.2.6h0Z"/>
        <polygon class="st1" points="46.5 26.5 46.8 26 46.5 26.4 46.5 26.5"/>
        <path class="st1" d="M42.6,30.6c-.1,0-.3.2-.4.2-.2.1-.3.3-.5.4-.2.1-.4.2-.6.3.2-.1.4-.2.6-.3l.5-.4c.2-.1.4-.2.6-.3h0c0-.1.2-.3,0,0,0,0-.1,0-.2.1Z"/>
        <path class="st1" d="M44.5,29s0,0,0,0c0,0,0,0,0,0Z"/>
        <path class="st1" d="M35.2,33.9s0,0,.1,0c0,0,0,0,0,0h-.1Z"/>
        <path class="st1" d="M42.9,30.4c.2-.1.3-.3.4-.4.1-.1.3-.3.4-.4-.1.1-.3.2-.4.4-.2.1-.3.3-.5.4,0,0,0,0,0,0Z"/>
        <path class="st1" d="M39.2,32.5c.2,0,.4-.1.7-.2,0,0,0,0,.1,0,0,0,0,0-.1,0-.2,0-.6.2-.7.2Z"/>
        <path class="st1" d="M44.3,29.2s0,0,0,0c0,0,0,0,0,0,0,0,0,0,0,0h0Z"/>
        <path class="st1" d="M44.3,29.2h0c-.2.2-.3.3-.5.4,0,0,0,0,0,0,0,0,0,0,0,0,.2-.2.4-.3.5-.4,0,0,0,0,.1-.1,0,0-.1,0-.1.1Z"/>
        <path class="st1" d="M36,35.8s-.3-.4-.5-1c-.1-.2-.3-.4-.4-.6h0s0,0,0,0c.3,0,.6-.1.9-.2,1.1-.3.4-.3-.7-.2,0,0,0,0-.2,0h-.4c0,.1.2.4.2.4,0,0,.2.3.4.6,0,0,0,.1.1.2,0,0,0-.1-.1-.3,0-.2-.2-.4-.4-.6v-.2c-.1,0,.1,0,.1,0,.7-.1,1.3-.2.7,0-.3,0-.5.1-.7.2h-.1s0,.2,0,.2c.2.3.3.5.4.6,0,.2.1.3.3.7-.1-.3.1.1.4.6.1.2.3.4.4.6.1.2.2.3.2.2v-.2c-.1,0-.5-.6-.5-.6l-.2-.4s.2.4,0,0Z"/>
        <path class="st1" d="M37.5,33.2l.5-.2c-.4.2-.8.3-1.2.5,0,0,0,0-.1,0,0,0-.1,0-.2,0-.8.2-1,.3-1,.3.2,0,.5-.1.7-.2h.7c0-.1.4-.3.4-.3l.5-.2h-.2Z"/>
        <path class="st1" d="M40,32.3s0,0,0,0c-.2,0-.5.2-.7.3-.2,0-.2.1,0,0,.3-.1.5-.2.7-.3.5-.3.4-.3,1-.6-2.1,1.1.6-.3-.9.4.2-.1.4-.2.6-.3,0,0,.2,0,.3-.1,0,0,.2-.1.3-.2,0,0-.2.1-.3.2,0,0-.2,0-.3.1-.2,0-.4.2-.5.3,0,0,0,0,0,0h0s0,0,0,0c0,0,.1,0,0,0,0,0,0,0,0,0,0,0,0,0,0,0,0,0,0,0,0,0-.1,0-.2,0-.2,0,0,0,0,0,.2,0,0,0,.1,0,.2,0,0,0,0,0,0,0h0s-.2.1-.2.1l-.8.3-.9.3h-.3c0,0,.2,0,.3,0,.2,0,.4-.1.7-.2.2,0,.6-.2,1-.4,0,0,0,0,0,0Z"/>
        <path class="st1" d="M47.8,23.9c0,0,0,0,0,0,0,.1,0,.2,0,0Z"/>
        <path class="st1" d="M47.5,24.9c0,0,0-.1,0-.2,0-.1,0-.3.2-.6.2-.5,0,0,0,0,0-.3.3-1.1,0-.1v.2c-.1.2-.2.4-.2.6-.3.7-.6,1.4-.5,1.3.1-.2.3-.4.5-1Z"/>
        <path class="st1" d="M44.4,29.3h0s-.5.4-.5.4l-.4.4-.5.4.6-.4.2-.2h0c0,0,.2-.2.2-.2.5-.4.4-.4.5-.4,0,0,0,0,0,0Z"/>
        <path class="st1" d="M34.9,34.4h0s-.3-.3-.3-.3l.5-.2h.2c0,0-.2,0-.2,0l-.5.2.3.4.4.5s0,.1.1.2v-.2c0,0-.4-.5-.4-.5Z"/>
        <polygon class="st1" points="36.1 36.7 36 36.6 36.1 36.9 36.3 37.2 36.2 36.8 36.1 36.7"/>
        <path class="st1" d="M27.7,13.2h.6c-.3,0-.4,0-.6,0Z"/>
        <path class="st1" d="M24.1,15.6h0c.1,0,.2-.1,0,0Z"/>
        <path class="st1" d="M29.6,40c0-.2,0-.3-.1-.5-.1-.3-.2-.5-.3-.7,0,0,0-.2-.1-.2,0,0,0-.1,0-.2,0,0,0,0,0,0h0c0,.1,0,.2,0,.2h0c.2.5.3.7.4,1,0,.2.1.3.2.5Z"/>
        <path class="st1" d="M12.3,47.6c0,0,0,.2,0,.2h0s-.2.5-.2.5l.2-.5v-.3Z"/>
        <path class="st1" d="M12.3,47c.2-.3.3-.7.4-1,0,.2-.2.6-.4,1Z"/>
        <path class="st1" d="M26.9,29h.7c-1.1,0-.6,0-.7,0Z"/>
        <path class="st1" d="M48.1,57.9c0,.1,0,.2,0,.3,0,.3,0,.5,0,.8,0,.2,0,.4-.1.6,0-.2.1-.4.2-.6,0-.3,0-.6,0-.8,0,0,0-.1,0-.2,0,0,0-.1,0-.1Z"/>
        <path class="st1" d="M26.4,14.5c.3-.2.4-.3.4-.3-.3.2-.5.3-.4.3Z"/>
        <path class="st1" d="M47,61.1c0,0,.2-.2.3-.3,0,0,.2-.2.3-.3.1-.2.3-.5.4-.8,0,0,0-.2,0-.3,0,0,0,.2,0,.3,0,.2-.3.6-.4.8l-.2.3-.3.3Z"/>
        <path class="st1" d="M4.8,18.9c0,0,0-.1,0-.2,0,0,0,0,0,.2Z"/>
        <path class="st1" d="M24,6.2c-.1,0-.2,0-.4,0-.1,0-.3,0-.5.1.1,0,.3,0,.5-.1.1,0,.3,0,.4,0Z"/>
        <path class="st1" d="M38.6,46.6c-.2-.5,0,0,0,0h0Z"/>
        <path class="st1" d="M38.3,43.9c0,.1,0,.2,0,.2,0,0,0-.1,0-.2Z"/>
        <path class="st1" d="M42.1,62.4s0,0,0,0c.2,0,.1,0,0,0Z"/>
        <path class="st1" d="M38.4,45.7s0,0,0,0c0,.2,0,.3.1.5,0,0,0,.1,0,.2,0,0,0,0,0-.2,0,0,0-.2-.1-.5,0,0,0,0,0,0Z"/>
        <path class="st1" d="M38.4,45.9h0c0-.1,0-.5,0-.5,0,0,0,0,0,.4,0,0,0,0,0,.1Z"/>
        <path class="st1" d="M38.8,47.3c0-.1,0-.3,0-.4,0-.2-.1-.3-.2-.4,0,.1,0,.1,0,.1v.3c.1,0,.2.4.2.4Z"/>
        <path class="st1" d="M23.3,13.3s0,0-.1,0c-.5.2-.3.1.1,0Z"/>
        <path class="st1" d="M22.8,42.5s0,0,0,0c0,0,0,0,0,0h0Z"/>
        <path class="st1" d="M22.3,44.4c.1-.4.2-.7.3-1,0-.3.1-.6.2-.9l-.3.6c0,.4-.1.9-.2,1.3Z"/>
        <path class="st1" d="M31.1,19h0s1.1-.7,1.1-.7c-.4.3-.8.5-1.1.7-.1.1-.2.2-.3.3,0,0,0,.1-.1.1,0,0,0,0,0,0,0,0,0,0,0,0,0,0,0,0,0,0,0,0,0,0,0,0h0s0,0,0,0h0s0,0,0,0c0,0,0,0,.1,0,0,0,0-.1.1-.2,0,0,.3-.2.5-.4.3-.2.5-.4.9-.6.2-.5.5-1,.7-1.4,0-.5-.2-1.1-.2-1.5-.1-.1-.2-.3-.3-.4,0,0-.1-.2-.2-.2-.1-.1-.2-.2-.2-.2h-.1c0-.1-.7-.6-.7-.6.2.1.2.2.5.3-.2-.1-.3-.2-.4-.3-.1,0-.2-.2-.3-.2-.5-.2-.6-.2-1-.3-.3,0-.5,0-1,0-.2,0-.5,0-.8,0,0,0,0,0,0,0-.5.1-.8.1-1,.2,0,0,0,0,0,0,0,0,0,0,.2,0h-.2s-.9.5-.9.5l-.6.4c-.4.3-.3.2,0,0l-.5.3-1,.8-.6.6h0c-.3.3-.9.9-1.1,1.2-.5.5.2-.3,0-.2l-.5.6-.4.6c-.3.3,0,0,.3-.7.2-.3.4-.5.7-.7-.4.3-.5.4-.7.7-.2.3-.3.5-.6.9-.2.3-.3.6-.6,1-.1.2-.2.5-.4.8,0,0,0,0,0,.1h0c0-.1.3-1,.3-1l.2-.3c0,0-.1.2-.2.3,0,.1-.1.3-.2.4,0,.1-.1.3-.2.4-.1.2-.2.4-.4.6-.1.2-.2.5-.4.8-.1.2-.3.4-.4.7,0,0,.2-.4.4-.7.1-.3.3-.5.4-.7.3-.4.4-.5,0,0,0,0,0,0,0,.1,0,.2-.2.4-.3.7,0,.1-.1.2-.2.4,0,.1-.2.3-.2.4,0,0,0,.2-.1.3,0,0-.1.2-.3.6-.1.4-.2.8-.4,1.2h0c-.4,1-.3.9-.5,1.6,0,0,0,0,0,.1,0,.2-.1.5-.2.6,0,.1,0,.2-.1.3,0,.1,0,.2-.1.3,0,.2-.1.3-.2.4-.5,1.9.4-1.2,0,.8,0,0,0,0,0,.1,0,.2-.1.3-.2.5,0,.2,0,.4-.1.6,0,.2,0,.4-.1.6,0,.2-.1.4-.2.6,0,.2,0,.4-.1.6,0,.2-.1.4-.2.6,0,.4-.2.8-.3,1.3h0c-.4,1.1,0-.2-.1.2v.4c-.1,0-.2.6-.2.6,0,.2,0,.2,0,.1-.2.9,0,0-.3,1.4,0,.2-.1.6-.3,1.3,0,.3-.2.6-.3,1,0,.4-.2.7-.3,1.1,0,.1,0,.2-.1.3,0,.3-.1.5-.2.7-.1.4,0-.2,0,0,0,.1,0,.3,0,.3,0,.2,0,.3,0,.5,0,.1,0,.2,0,.2,0,.2-.1.4-.1.4,0,.3,0,.5-.1.7,0,.2-.1.4-.2.6,0,.2,0,.4-.1.6,0,.2-.1.4-.2.6l-.2.6-.2.6v.4c0-.3,0-.4,0-.4,0,0,0,0,0,0,0,0-.3,1.1-.6,2,.2-.4.3-.7.4-1-.1.4-.3.8-.4,1.3l-.4.8c-.1.2,0,0,0-.3,0,.1-.1.3-.2.4,0,.1-.1.2-.2.3,0,.2,0,.1,0,0,0-.1.1-.3.2-.5.1-.2.3-.4.4-.6h0c.1-.6.3-1,.2-1,0,.1-.1.4-.2.7,0-.1,0-.2,0-.2,0,0,0,.2-.1.4,0,0,0,.1,0,.2l-.3.4h0c0,.1-.2.5-.2.5l-.3.7-.5,1.1-.3.5c-.1.3-.3.6-.4.9,0,.5,0,1,0,1.5.3.5.6,1,.9,1.5.4.3.9.6,1.5.9.4.1.9.2,1.4.3-.8-.1-.2,0-.3.1-.1,0-.3-.1-.5-.2-.2,0-.4-.1-.7-.2-.4-.3-1-.6-1.5-.9-.1-.2-.2-.4-.3-.6-.1-.2-.2-.4-.3-.6.4.8.3.6.2.4l.5.8,1.5.9h.5c0,.1,0,.2.3.2.2,0,.5.1.8.2.1,0,.3,0,.4,0-.2,0,0,0,.2,0,.1,0,.3,0,.5,0,.2,0,.4,0,.6,0,.4-.2,1-.4,1.4-.6.2-.2.5-.3.6-.4,0,0,0,0-.6.5-.2,0-.5.2-.9.4.4-.1.6-.2.9-.3.4-.3.7-.5,1.1-.8.2-.3.3-.6.6-1,0-.1.1-.3.2-.4,0,.2-.1.3-.2.4,0,.1-.1.2-.1.2,0,0,0-.1.1-.2.1-.4.3-.9.5-1.4.2-.5.4-.9.3-.7v.3c.2-.8.7-1.9,1.1-3.1.2-.6.4-1.1.6-1.6.2-.5.3-1,.5-1.4,0-.2,0-.5.1-.6,0-.3.1-.4.1-.5,0,0,0,.3,0,.5.2-.7.4-1.4.5-2.1.2-.7.2-1.4.4-2.1h0c0,.2.4-.6.3,0,0,.1,0,.4-.1.8,0-.2.1-.5.2-.8,0-.2.1-.4.2-.6,0-.2,0-.4.1-.6,0-.1,0-.3.1-.4,0,.1-.1.3-.2.4,0,.2-.2.3,0,0,0,0,0,0,0,0,.3-.7.4-.9.5-1.2,0-.1,0-.3.2-.5,0-.3.1-.5.2-1-.1.5-.1,0,0-.6,0-.1,0-.3.1-.4,0,.1.2,0,0,.3l.3-1.2h0c0-.1-.2,0-.2,0h.6c0,0,.3,0,.3,0-.2,0-.3,0-.2,0,0,0,0,0,.2,0,0,0,0,0,.1,0h0s0,0,0,0c0,0,0,0,.2,0,0,0,0,0,.1,0,0,0,.1,0,.2.1,0,0,.2,0,.3.1.3.2.6.5.8.7.1.1.3.3.4.4,0,0,0,.1.1.1h-.1c0-.1-.4-.5-.4-.5h-.1c0,0,.1,0,.2,0,.1.1.3.3.4.4.1.2.3.3.4.5.2.3.5.6.6.8.2.3.4.6.6,1,0,.1.1.3.2.5,0,.3.2.6.2,1-.1-.3-.4-.7,0,.6.2.4.6,1.7,1.1,3.3,0,.2,0,.4.1.5,0,.2.1.5.2.7v.2c0,0,.2.4.2.4h0c.1.6.3,1.1.5,1.7-.1-.4-.3-.9-.6-1.6,0-.2-.2-.4-.3-.6,0-.2-.2-.5-.2-.7,0-.2,0-.4-.1-.5-.2-.8-.5-1.5-.6-2.1.2,1,0,.3.3,1.7,0,.5-.2-.8-.3-1.2l.4,1.6v.6c0,0,.2.8.2.8l.2.4s0,0,.1.2c0,.1,0,.3.2.6,0,.2.2.5.2.7.1.5.2.9.3.8l-.3-1.1c-.1-.4-.2-.8-.3-1.1l-.2-.6-.2-.8h0s0,0,0,0c0,0,.1.2.3.8,0,.2.2.4.3.6,0,.3.2.7.3,1,.1.4.2.8.3,1.2,0,.2,0,.5,0,.7h0c0,.4,0,.3-.1,0,0-.2-.1-.4-.1-.3,0,0,0,0,0,.1,0,0,0,.1,0,.2,0,.2.2.4.3.7,0,.2.1.4.2.6,0,.2.2.4.2.6,0,0,0,.1,0,.2v-.2s-.3-.5-.3-.5v-.3c0,0,0,.2,0,.3,0,.2.2.4.2.6,0,.2.1.4.2.6.1.3.2.5.3.8,0,.2.2.4.3.5,0,.2.2.4.3.6,0,0,0,.2,0,.2,0,0,0,.1,0,.2,0,0,0,.2.1.3,0,.2.1.4.2.5.2.3.3.6.3.6-.4-.9-.1-1.2.2-.7,0,0,.2.5.5,1,.1.2.3.4.4.5.1.2.3.4.4.6.2.4.5.7.6.8.5.8-1-1-.6-.3,0,0,.4.4.5.5.1.2.1.2.1.2,0,0,0,0,0,0,0,0,.2.2.5.5.2,0,2.1,1.6.5.3.4.3.6.5.9.7.2.2.4.3.8.6.2,0,.4.2.7.3-.2-.1.2,0,.8.2.3,0,.5.2.8.3.3,0,.6,0,.9.2,0,0,.2,0,.3.1,0,0,.2,0,.2,0,.6,0,1.1.1,1.6.2.4,0,.8-.1,1.1-.2.4-.1.8-.2,1.2-.4.3-.2.6-.4.9-.6.2-.2.4-.5.7-.7h0c0-.2.3-.6.5-.8,0,0,0-.1,0-.1,0,0,0,0,0,.1,0,0,0,0,0,0h0c0-.3,0-.5.2-1,0-.1,0-.3,0-.4,0-.8,0-.1,0,.4,0,.4-.1.6,0,.2,0,0,0,0,0-.2,0-.2,0-.5,0-.9,0-.3-.2-.7-.3-1.1-.2-.2-.4-.5-.6-.6,0,.1.2.3.5.7,0,.3.2.7.3,1.1,0,.3,0,.6,0,.9,0,.2,0,.5-.1.6,0,0,0-.2,0-.7,0-.2,0-.5,0-.8,0-.3-.2-.6-.3-1-.3-.3-.5-.6-.8-.9-.1,0-.2,0-.3,0-1-.2-1.2-.2-1.2-.2,0,0,.2,0,0,0-.2,0-.4,0-.6-.1-.2,0-.4-.1-.5-.2-.2,0-.3-.1-.5-.2-.2,0-.3-.2-.5-.3-.6-.4-.9-.6-1.4-.9-.2-.2-.4-.4-.7-.8,0-.2-.2-.4-.3-.6-.1-.2-.2-.4-.3-.7,0-.2-.1-.3-.1-.3-.1-.3,0-.1,0,0,0,0,0,.1,0,0,.3.6.6,1.1.8,1.5.2.3.5.5.7.8.2.2.4.3.7.5l-.6-.5-.3-.4c0,.1.2.2.4.4.4.3,1,.7,1.3,1,0,0,0,0,0,0,0,0,0,0,0,0-.2-.2-.7-.5-1.3-1-.2-.2-.4-.5-.7-.8-.3-.5-.5-1-.8-1.6-.3-.5-.6-.9-.9-1.4-.2-.6-.4-1.1-.6-1.6,0-.4-.2-.8-.3-1.2,0-.2-.1-.4-.2-.6-.1-.3-.2-.6-.2-.3v.3c.1,0,.3.5.3.5,0,.5,0-.1-.2-.5-.1-.3-.2-.5,0,0,0-.2-.2-.4-.2-.6,0-.2,0-.3-.1-.5,0-.4-.1-.8-.2-1.1-.1-.6-.3-1.2-.4-1.9v-.3s.2,1.1.3,1.6c0-.3-.1-.7-.2-1.1,0-.2,0-.5,0-.7,0-.2-.1-.5-.1-.7,0-.3-.2-.5-.2-.7,0,0,0,0,0-.1h0c0,.1.2.9.2.9v.3c0,0,0-.2,0-.3,0-.2-.2-.4-.2-.7,0-.3-.2-.6-.3-1,0-.3-.2-.7-.2-1,0-.2-.1-.3-.2-.5,0-.2-.1-.4-.2-.6,0,.3.1.4.2.5,0,0,0,.1,0,.2,0,0,0,0,0,.2,0,0,0,0,0,.1,0,0,0,0,0,0,0,0,0,0,0,0,0,0,0,0,0,.1,0-.5.2.8.4,1.7,0,.3.2.5.2.7,0,.2,0,.2,0,0,0,0,0,0,0-.1,0,0,0,0,0,.1,0,.2,0,.5.1.7,0,.2,0,.5,0,.7,0,.5.2,1,.3,1.7h0s0,0,0,0c0,0,0,0,0,0,0,0,0,0,0,0,0,.1,0,.3,0,.8,0,0,0,.2,0,.3,0,0,0,0,0,0,0,0,0,0,0,0,0,0,0,0,0,0,0-.3,0-.5,0-.7,0,.2,0,.4.1.8,0,.2,0,.3.1.5,0,.2.2.4.2.6.1.5.3,1.1.4,1.3.2.7-.1-.3,0,.1v.3c.2.2.3.4.4.6,0,.1.6,1.9,0,.3.1.3.2.5.3.8.1.3.2.5.4.7.1.3.3.5.5.8.1.3.3.5.4.8.2.3.3.6.4.8,0,.1.2.2.3.3,0,0,.1.2.2.3,0,0,.2.2.3.3.2.2.5.3.6.4.1,0,.1,0,0,0l.9.6.5.3.5.2h.4c0,.1,0,.1,0,.1h.1c.2,0,.4.1.6.1.2,0,.4,0,.5,0,.3,0,.7.1,1,.2.2.3.5.6.8.8,0,.3.2.6.2,1,0,.3,0,.5,0,.8,0,.3-.1.6-.2.9-.1.3-.3.5-.4.8,0,0-.2.2-.3.3-.1.1-.2.2-.3.4-.2.2-.5.4-.8.6-.3,0-.7.2-1.1.3,0,0-.2,0-.3,0h-.3c-.2,0-.3,0-.5,0-.4,0-1.1-.1-1.6-.2-.6-.2-1.2-.3-1.4-.3,0,0,0,0,0,0-.1,0-.5-.2-.7-.4-.2-.1-.4-.2-.6-.3-.2-.1-.5-.2-.7-.3,0,0-.2-.2-.3-.2-.1,0-.2-.2-.4-.3l-.4-.3-.3-.3c-.2-.2-.4-.4-.7-.5-.2-.1-.4-.4-.6-.5-.3-.3-.6-.7-.8-.9,0,0,0,0,0,0l-.4-.6c-.2-.2-.3-.4-.5-.6-.4-.7-.8-1.4-1.2-2.3h0c0,0,0,0,0,0,0-.2-.2-.3-.3-.5,0-.2-.2-.4-.3-.6,0-.2-.2-.5-.3-.8,0-.2,0-.4-.1-.6,0-.2-.1-.4-.2-.6,0-.2,0-.4-.1-.6,0-.2-.2-.5-.2-.7,0-.2,0-.5,0-.7v-.2s0,.1,0,.2c0,0,0,.2,0,.3,0,.1,0,.2,0,.3,0,0,0,0,0,.1h0c0-.1,0-.4,0-.4v-.4c-.1-.4-.2-.8-.3-1.2l-.2-.6v-.6c-.1,0-.4-.6-.4-.6,0-.2-.1-.5-.2-.7,0-.2,0-.4,0-.6-.2-.9-.5-1.8-.6-2.7-.2-.6-.2-1-.3-1.4,0,0,0,.1,0,.1,0,0,0-.1,0-.2,0-.3-.1-.5-.2-.8,0,0,0,0,0,0,0,0,0,0,0,0,0,.2,0,.5.1.7,0-.2,0-.4-.2-.7,0-.2-.1-.3-.2-.5,0,0-.1-.2-.2-.3,0-.1-.1-.2-.2-.3v-.3c0,0-.1,0-.1-.1,0,0,0,0,0,0,0,0,0-.1-.1-.2,0,0,0,0,0-.1,0,0,0,0,0,0,0,0,0,.1.1.3-.1-.1-.2-.3-.3-.4,0-.1-.2-.2-.2-.3h0c-.1-.2-.2-.3-.4-.6-.1-.1-.3-.3-.4-.4-.3-.3-.6-.5-.9-.7-.1,0-.1,0-.2-.1-.1,0-.4-.2-.8-.3-.2,0-.4,0-.5,0-.2,0-.4,0-.6,0h-.2s0,.1,0,.1v.2c-.2.6-.4,1-.4,1.4,0,.2,0,.3,0,.4,0,0,0,.2,0-.1,0,.3-.1.6-.2,1,0,.2,0,.3-.1.5,0,.1,0,.3-.1.4,0,0,0,.2,0,.3l-.2.3-.2.7v.6c-.1,0-.2.3-.2.3,0,.1,0,.2-.1.3-.2.8-.3,1-.2.1-.1.6-.2,1-.3,1.3,0,0,0,.2,0,.2,0,0,0,.1,0,.2,0,.1,0,.2,0,.3-.1.4-.2.8-.5,1.8h0s0,0,0,.1c0,.2,0,.4-.1.6-.2.5-.4,1.1-.5,1.4,0,.2-.2.5-.3.8-.1.3-.3.7-.5,1.2-.3.9-.8,1.9-1.3,3.1-.2.4-.3.9-.5,1.3-.2.3-.4.6-.6.8-.3.2-.7.4-1,.7-.4.2-.9.4-1.3.5-.5,0-1,0-1.5,0h0s0,0,0,0c0,0,.1,0,0,0,0,0,0,0-.1,0-.2,0-1-.3-1.4-.4,0,0-.1,0-.2-.1,0,0-.1,0-.2-.1,0,0-.2,0-.2,0-.2-.2-.7-.5,0-.2-.2-.2-.5-.3-.7-.4-.3-.5-.5-.9-.7-1.3,0-.2,0-.4,0-.6v-.3s0-.2,0-.2h0c0-.3.2-.6.3-.8.1-.2-.1.4,0,.2,0,0,0-.2.2-.4,0-.2.2-.3.2-.4.1-.2-.1.3-.3.6h0c0,0,0-.2,0-.2,0,0,0-.1,0-.2,0-.1.1-.2.2-.3.2-.5.3-.9.4-1.1.1-.5,0-.6,0-.7,0,0,0,0,0,0,.2-.4.4-.8.6-1.1.1-.4.2-.7.4-1.1.2-.4.4-.9,0,.3.1-.2.3-.8.6-1.5,0-.2,0-.4.2-.6.2-.4.3-.8.4-1.2,0-.2,0-.4.1-.6.1-.3.2-.6.2-.6,0,0,0,0,0,0,0-.1.1-.4.2-.7,0-.2.1-.3.1-.4,0,0,0-.1,0-.1,0-.2,0-.4.1-.5.1-.4.2-.6.3-.9,0-.1.1-.2.1-.3,0-.2.1-.4.2-.7,0-.1,0-.3.1-.4,0,0,0-.2,0-.2,0,0,0-.2,0-.3,0,.1-.1.3-.1.4,0-.2,0-.3.1-.5,0-.2,0-.4.1-.6.1-.4.3-.9.5-1.6h0c.3-.9.4-1.4.5-1.7,0-.3.1-.4.2-.6,0-.2.1-.6.3-1.2,0-.2.1-.4.2-.6,0,0,0,0,0,0,0,0,0,0,0,0,0,0,0,0,0,0,0,0,0,0,0,0,0-.1,0-.4.1-.6,0-.2.2-.4.2-.6.1-.4.2-.8.3-1.1,0-.2.2-.4.2-.6.1-.4.2-.8.3-1.2l-.2.6c0-.2,0-.4.2-.6,0-.2.2-.4.3-.6,0-.2.1-.4.2-.6.3-.6.5-1.2.7-1.6,0-.2,0,.3-.2.6.2-.6.3-.9.4-1.1,0-.2,0-.2,0-.2,0,0,0,0,0-.6,0,0,0-.2.1-.3.2-.3,0,.3.3-.5,0,0,0-.1.1-.2,0-.1.2-.3.3-.6,0-.2.2-.5.3-.8.1-.2.2-.4.3-.6.1-.3.2-.6.3-.8.2-.3.4-.7.5-1,.2-.3.4-.6.6-.8,0,0,0,0,0,0,0,0,0,0,0,0,0,0-.1.2-.2.2,0,0,0,0,.1-.2,0,0,0,0,.2-.2.1-.1.3-.3.4-.5.2-.1.3-.3.5-.5.4-.3.7-.7,1.1-1,.3-.2.7-.5,1-.8.2-.1.5-.3.7-.4.2,0,.2-.1.2-.1h0c.2-.1.5-.2.8-.4.3,0,.6-.1.9-.2.3,0,.6,0,.8,0,.3,0,.7,0,.9,0,.1,0,.2,0,.3,0,0,0,.1,0,.2.1,0,0,.2,0,.3.1.2.1.6.4.8.6.2.3.4.5.6.8,0,.4.1.8.2,1.2-.2.4-.4.8-.6,1.1,0,0-.2.1-.3.2,0,0-.2,0-.2.1-.1,0-.2.1-.2,0l-.6.4-.4.3-.4.4-.3.4-.3.5-.2.3h0c-.1,0-.2.2-.3.3-.1.1-.2.3-.3.4-.7,1.2-.7,1.8-.9,2.4-.2.4,0,.1,0,0,0,.1,0,.3-.1.4-.1.2-.2.4-.3.6,0,.2-.1.4-.2.5,0,.2-.1.4-.1.6-.2.5-.3.8-.4,1.2,0,.2,0,.4-.1.6,0,.2-.1.4-.2.6,0,.1,0,.3,0,.5,0,.2-.1.4-.2.7v.2c0,0-.2.1-.2.1h0c0,0,0,0,0,0,.1,0,.3,0,.6,0,.1,0,.3,0,.4,0,.1,0,.2,0,.4,0,.5,0,1.1,0,1.8-.1,1.4,0,3-.4,4.4-.9,0,0,0,0-.3.1.5-.2,1.1-.4,1.7-.6.6-.3,1.1-.5,1.6-.8l.4-.3c.3-.3.7-.5,1-.8.1-.1.3-.2.4-.4.1-.1.2-.2.3-.4,0-.2.2-.3.3-.5.1-.2.2-.4.4-.6.2-.4.3-.7.5-1,0-.3.1-.5.2-.7l.2-.5c.1-.6.2-1.1.3-1.7-.5,2.8,0-.4-.3.7,0-.3.1-.8.2-1.1,0-.8,0-1.3,0-.4v.2c0,.2,0-.3,0-.9,0-.2,0-.4-.1-.6,0-.2,0-.4,0-.6-.1-.4-.2-.6-.3-.9-.2-.3-.3-.4-.2-.4-.2-.2-.3-.5-.5-.7l-.5-.7-.4-.3c-.7-.5-1.4-.9-2.1-1.2-.4-.2-.7-.3-1.1-.5-.4-.1-.7-.3-1.1-.5-.6-.1-1.1-.3-1.7-.4-.5,0-.9,0-1.3-.1-.1,0-.3,0-.4,0-.7,0-1.4-.1-2.1-.2-1.1.1-2.1.2-3.2.3-.2,0-.4,0-.5.1h.5s0,0,0,0h0c-.5.1-.9.2-1.4.3h-.4c-.2.2-.4.2-.3.2,0,0,.2-.1.7-.3,0,0,.2,0,.3,0,0,0-.2,0-.3,0-.2,0-.4.1-.6.2-.2,0-.4.2-.6.2-.4.1-.6.2-.7.3-2.4.8.9-.4.2-.2-.3.1-.7.2-1,.4h.2c-.8.3-.9.3-2.3.9-.9.5-.5.2-.8.4,0,0,0,0-.1,0,0,0-.2.1-.4.2l-.4.2c-.3.3-.5.4-.9.7l-.3.3h-.1c0,.2,0,.2-.1.3,0,0,0,0,.1-.1h.2c0-.1.3-.4.3-.4h.1c0,0,0,0,0,0-.1.1-.3.3-.4.4,0,0-.1.1-.2.2,0,0-.1,0-.2.1-.2.2-.3.3-.3.3,0,0,0,0,0,0,0,0,.1,0,.4-.2,0,0-.2.1-.3.3-.1.1-.2.2-.4.4,0,.1-.2.3-.3.4,0,.1-.2.3-.3.5-.2.3-.4.6-.7,1-.3.5-.5,1-.6,1.6,0,.4-.2.7-.2,1.1,0,.2,0,.3,0,.5,0,.2,0,.4,0,.6,0,.4,0,.8,0,1.1,0,.4.2.7.2.9,0,.2.2.4.2.4.1.2.2.5.3.8.1.3.2.5.4.8.1.3.3.5.4.7.1.3.3.5.4.8,0,.3,0,.7,0,1,0-.1,0-.3,0-.3,0,0,0,0,0,.3,0,.1-.1.4-.3.7,0,0,0,0,0,0,0,0,0,0,0,.1,0,0,0,0,0,.2,0,0-.2.2-.3.3-.1.1-.3.2-.4.4-.2.2-.4.4-.7.5-.3.1-.7.3-.9.4-.1,0-.2,0-.3,0,0,0-.2,0-.3,0,.2,0,.2,0,.1,0,0,0,0,0-.2,0,0,0-.2,0-.3,0-.3,0-.7-.1-1.1-.2-.2-.1-.4-.2-.5-.3-.2-.1-.3-.2-.4-.3-.2-.1-.2-.1.1.1-1-.7,0,0-.8-.7-.1,0-.2-.2-.3-.2-.2-.2-.5-.5-.8-.7-.2-.2-.3-.4-.5-.6-.2-.3-.4-.6-.6-.9-.2-.3-.3-.7-.5-1.1,0-.2-.2-.4-.2-.5,0-.2-.1-.4-.2-.6-.2-.9-.3-1.9-.5-2.9,0-.4,0-.8,0-1.3h0s0,0,0,0c0,0,0,0,0,0,0,0,0,0,0,0,0,0,0-.1,0-.3l.2-.7v-.7c.1,0,.3-.5.3-.5.1-.6,0-.7.3-1.5,0-.1.1-.3.2-.4,0,.2-.2.4,0,0,0-.2.1-.3.2-.4l.2-.4.3-.6c.3-.4.5-.8.8-1.2l.6-.8.6-.8c.4-.5.9-1,1.3-1.5l.5-.5c.7-.6,1.4-1.1,2.1-1.7l.6-.4.7-.3.6-.3.8-.3.8-.4.8-.4c1.2-.4,2.6-.8,3.8-1.3h.6c.2-.2.4-.2.6-.2.4,0,.8,0,1.2-.2-1,.2-.3,0,.4-.1-.5,0,0,0-.1,0h.6c.7-.2,1.5-.2,2.2-.3h.2c.5,0,2.5-.2,3.2-.2.1,0,.3,0,.3,0h-.3s-.6,0-.6,0c.6,0,.2-.1-.4-.1-.6,0-1.3,0-1.2,0-.3,0-.7,0-1.2,0-.7,0-1.4,0-2.3.2-.4,0-.9.2-1.3.3-.4,0-.9.2-1.4.3-.3,0-.2,0,0,0,.1,0,.3,0,.2,0-.3,0-.5.1-.8.2-.4.2-1,.3-1.7.6h.1c-.9.2-1.6.5-2.3.7-.3.1-.6.3-.8.4-.3.1-.5.3-.8.4-.3.1-.5.2-.8.3-.4.2-.8.4-1.3.7-.2.1-.4.3-.7.4-.5.4-1.1.9-1.8,1.5l.3-.2c-.3.2-.4.4-.6.5-.2.2-.4.3-.5.5,0,0,0,0,0,0-.2.3-.1.2.1,0,.1-.1.3-.3.5-.5.5-.4,1-.8.7-.5-.2.1-.4.3-.7.5-.2.1-.3.3-.5.5-.4.4-.9,1-1.4,1.5-.2.3-.5.5-.7.8-.2.3-.4.5-.6.8-.3.5-.6.9-.8,1.2,0,.1-.1.2-.2.2-.1.3-.2.4-.2.4,0,0,0,0,0,0,0,0,0,0,0,0,0,0,0-.1,0,0,0,0,0,.2-.2.5,0,.1-.1.2-.2.3v.3c0,0-.1.1-.1.2-.2.8-.3,1.2-.4,1.2,0-.2.1-.6.2-.9-.1.5-.3,1-.4,1.7,0,.7-.1,1.3-.2,1.7,0,.2,0,.3,0,.4v-.4s.2-1,.2-1c0,.3,0,.6-.2,1,0,.4,0,.9,0,1.3.1,1,.2,2,.5,3.1l.2.6c0,.2.2.4.3.6.2.4.4.7.5,1.1.2.3.4.6.6.9.2.2.4.5.5.7.3.3.5.5.8.8.4.3.8.6,1.2.9,0,0-.2-.1-.2-.2.5.3.8.5,1.1.7.6.1.8.2,1.2.2.3,0,.6,0,1-.1.3-.1.6-.3,1.1-.4.2-.2.4-.3.7-.6h0s0,0,.1,0c.1-.1.2-.2.4-.4.1-.1.3-.3.4-.4.1-.3.3-.7.4-1.1,0,.2,0,.2,0,.2,0,0,0,0,.1-.2,0-.2,0-.5,0-.6,0-.1,0-.2,0,.2,0-.3,0-.6,0-.8-.6-1-.7-1.2-.8-1.4-.1-.2-.2-.3-.6-1.1v-.4c-.2-.2-.3-.4-.4-.6,0-.2-.1-.4-.2-.8,0-.2,0-.4,0-.7,0,1.3,0-1,.1.4,0-.3,0-.5,0-.8,0-.2,0-.4,0-.6,0-.2,0-.3,0-.5,0-.4.2-.7.2-1,.2-.6.4-1.1.6-1.5.3-.5.6-1,.9-1.4.3-.4.1-.3-.1,0-.2.4-.6.9-.8,1.3-.1.3-.2.5-.1.2-.1.3,0,0,0-.3.1-.2.3-.5.5-.8.2-.3.4-.6.6-.8,0,0,.1-.1.2-.2.1-.1.2-.2.3-.3.2-.1.3-.2.5-.4.2-.1.4-.3.6-.5.2-.2.5-.4.8-.6.3-.1.6-.3,1-.5-.2.1-.2.1-.5.3.9-.5,1.6-1,2.8-1.3.6-.3,1.4-.5,1.6-.7-.7.3-1.5.5-2.2.8.5-.2,1-.4,1.6-.7.3-.1.6-.2.9-.3.3-.1.7-.3,1.1-.4.3,0,.6,0,1-.2-.1,0-.6.2-1,.2,0,0-.2,0-.3,0,0,0,.2,0,.3,0,.4,0,.9-.2,1.3-.3,0,0,.2,0,.3,0,0,0-.1,0-.2,0-.1,0-.3,0-.5.1-.2,0-.5,0-.8.1-.2,0-.4.1-.6.2h-.3c-.1.2-.2.2-.4.2-.4.1-.9.3-1.2.5.3-.1,1-.4,1.4-.5.5-.2.8-.3.5-.1.2-.1.4-.2.6-.3.4,0,.8-.2,1.3-.3.7,0,1.4-.1,2.2-.3h-.1c.2,0,.6,0,1,0,.1,0,.2,0,.3,0h-.2c0,0-.1,0-.1,0h-.5c.2,0,.4,0,.5,0,.3,0,.7,0,1,.1.3,0,.7,0,1,.1h.4c.3,0,.7,0,1,.1-.5,0-.8,0-1,0-.1,0-.2,0-.3,0,0,0-.1,0-.2,0,0,0,0,0,0,0,0,0,0,0,0,0,0,0,0,0,0,0,0,0-.1,0-.4,0,.1,0,.3,0,.4,0,.2,0,.3,0,.4,0,.6,0,1,0,1.3.1.3,0,.5.1.8.2.2,0,.5.2.9.3.1,0,.5.2.8.3.3.1.7.3,1.2.5-.5-.2-1.8-.8-1-.5.7.3,1.6.7,2,.9,2.2,1.3-.3-.3.7.3.3.2.5.4.7.5,0,0,.3.2.3.2,0,0,0,0,.1.2,0,0,.1.1.2.2.1.1.2.3.4.5h0c.2.4.4.7.5.9.3.6.3.7.4.8,0,0,0,0,0,.2,0,0,0,.2,0,.4,0,.1,0,.3.1.6,0,.1,0,.2,0,.4v-.3c0,0-.3-.5-.3-.5v-.2s0,.2,0,.2l.2.6v.6c0,0,0-.3,0-.3,0,.3,0,.5,0,.6,0,.2,0,.3,0,.5,0,.2,0,.3,0,.5,0,.2,0,.3,0,.5,0,.2,0,.3-.1.5,0,.2-.2.4-.2.7.1-.2,0,0,0,.4,0,.2-.3.6-.5,1h0c-.4.6,0,0-.4.5,0,0-.1.2-.2.4,0,0,0,0-.1.1,0,0,0-.1,0-.1h0s0,0,0,0c0,0,0,0,0-.1,0,0,0-.2.1-.3,0,0,.1-.2.2-.3,0,0,.1-.2.2-.3,0,0,.1-.2.2-.3,0,0,.2-.4.2-.5-.1.2-.3.5-.4.7-.1.2-.2.4-.4.6,0,.2-.2.3-.2.4,0,0-.2.2-.3.3-.1.1-.2.2-.3.3,0,0,0,0-.1,0,0,0,0,0,.1,0,.1-.1.3-.2.4-.3,0,0,0,0,0,0h0s-.3.4-.3.4l-.9.8-.4.3-.4.2c-.4.2,0,0,.2-.2-.4.2-.8.5-1.4.7,0,0,0,0-.1,0,0,0,0,0,.1-.1,0,0,.3-.2,1-.6l-.5.3-.5.2-.7.3-.7.2c-.2,0-1.3.3-1,.2-.7.2-1.5.4-2.4.5-.9.1-1.9.2-2.9.3,0,0,0,0,0,0,0,0,0,0,0,0,0,0,0,0-.2,0,0,0,0,0,0,0h0c0,0,0-.2,0-.2,0,0,0,0,0,0v-.2s.1-.3.1-.3c0-.2.2-.4.2-.6,0-.2.1-.4.2-.6.1-.4.3-.8.4-1.2,0-.2,0-.4.1-.6,0-.2.1-.3.2-.5,0-.1.1-.2.2-.4v-.3c.1,0,.5-.9.5-.9.3-.8.1-.4,0-.2,0,.1-.1.2,0,.1,0-.1,0-.4.4-1,.2-.4.3-.7.4-.8.3-.4,0,0,.4-.3.2-.2.3-.4.4-.7,0-.2.2-.3.2-.5,0-.1.2-.2.3-.4.1-.1.2-.3.3-.4.1,0,.2-.2.3-.3.2-.1.4-.3.6-.4.2-.1.5-.3.7-.4-.3.2-.5.3-.7.5-.2.1-.4.3-.6.4h0ZM20.4,20.7s0,0,0,0c0-.2.2-.4.3-.6,0-.2.2-.5.3-.6,0,.2-.1.5-.2.7-.1.2-.2.4-.4.6,0,0,0,0,0,0ZM11,50.3c0-.2.2-.4.3-.7,0-.1.1-.3.2-.4,0,.1-.1.3-.2.5,0,.2-.2.5-.3.7ZM40.8,52.1s0,0,0,0c.4.8.3.5,0,0ZM39.9,50.5c0,0,0-.1,0-.1,0,0,0,0,0,0,0,.1.3.5.5.9,0-.1-.2-.3-.5-.8ZM17.8,15.1l.3-.2c-.7.4-.5.3-.3.2Z"/>
        <path class="st1" d="M12.3,47.1c0,0,0-.1,0-.1,0-.1,0-.2,0,.1Z"/>
        <path class="st1" d="M26.8,29.1h0s0,0,0,0h-.1Z"/>
        <path class="st1" d="M35.7,58.9c-.2-.3-.4-.5-.4-.6,0,0,0,.1.4.6Z"/>
        <path class="st1" d="M37.4,41.1v.4c.1,0,.3.7.3.7,0-.3-.1-.6-.2-.7,0-.1,0-.2,0-.3,0,0,0,.3,0-.1Z"/>
        <path class="st1" d="M37.9,33.4c.2,0,.3-.1.5-.2h0s0,0,0,0h0c-.7.3-1.1.5-.4.2Z"/>
        <path class="st1" d="M37.4,39.9c0,0,0-.6-.2-1.2,0-.1-.1-.3-.2-.4,0,0,0,0,0,.1,0-.1,0,0,0,.3,0,.2.2.7.3,1.2Z"/>
        <path class="st1" d="M36.9,38.2c-.1-.2-.2-.5-.3-.7,0,0,0,.3.3.7Z"/>
        <path class="st1" d="M39.1,48.2c0-.4-.1-.2-.2-.4,0-.1,0,0,0,.2,0,.2.1.5.2.7,0,.2.1.3.1.3,0,0,0,0-.1-.3,0-.1,0-.2-.1-.4Z"/>
        <path class="st1" d="M37.4,39.2v.3s.2.4.2.4c0-.2-.1-.5-.2-.7Z"/>
        <path class="st1" d="M38.6,45.6v-1.1c-.1,0-.2-.2-.2-.2,0,0,0-.1,0-.3,0,.2,0,.4.1.6,0,.6.1,1.1.1,1.1Z"/>
        <path class="st1" d="M38.4,44c0-.4-.2-.8-.2-1,0,.2.1.7.2,1Z"/>
        <path class="st1" d="M37.8,41v.4c.1,0,.1,0,.1,0,0,.3.2.6.2.9,0-.3-.1-.6-.2-.9v-.4Z"/>
        <path class="st1" d="M46.8,56h.5c0,.1.6.7.6.7.1,0-.1-.2-.5-.6,0,0,0,0,0,0-.3,0-.8-.1-.6,0Z"/>
        <path class="st1" d="M42.9,54.2c.3.2.3.3.5.4h0s-.6-.4-.6-.4Z"/>
        <path class="st1" d="M46.6,55.8s.1,0,.3,0c.2,0,.3,0,.5,0,.2.2.2.3.3.3,0,0,0,0,0,0,0,0-.1-.1-.2-.2-.1,0-.3,0-.5-.1-.1,0-1.6-.3-.3,0Z"/>
        <polygon class="st1" points="34.5 57 34.8 57.3 34.8 57.2 34.5 57"/>
        <path class="st1" d="M28.5,39.1c0,.1,0,.2.1.3,0,0,0,.1.1.2,0,.1.1.2.1.2,0,.2,0,.1.2.4,0,0,0,.3.1.6,0,.2,0-.3-.1-.6,0-.2-.1-.4,0-.2,0,0,0-.2,0-.2-.2-.3-.4-.7-.4-.8,0-.1,0-.1,0,0Z"/>
        <path class="st1" d="M29,40c0,0,0,.1,0,.2,0,0,0,.2,0,.3,0-.2,0-.3,0-.3,0-.1,0-.2,0-.2Z"/>
        <path class="st1" d="M28,6h.3c0,0,0,0,.1,0h.1s.5,0,.5,0h-.7s-.4,0-.4,0Z"/>
        <path class="st1" d="M30.1,5.9c0,0,.1,0,.2,0,0,0,0,0,0,0h.6c-.2-.1-.5,0-.7,0-.1,0-.2,0-.2,0Z"/>
        <path class="st1" d="M19,23.5h0s0-.1.2-.4c0-.1.1-.2.2-.4l-.2.4-.2.4Z"/>
        <path class="st1" d="M29.1,13h-.3s.5,0,.5,0h0s0,0,0,0c0,0-.1,0-.2,0Z"/>
        <path class="st1" d="M29.1,22c0-.1.1-.2.2-.4.1-.2.2-.3.3-.5.1-.2.2-.3.3-.5,0,0-.1.2-.2.3,0,0-.1.2-.2.3,0,0-.1.1-.2.2,0,0,0,0,0,0,0,0,0,0,0,0,0,0,0,0,0,0,0,0,0,0,0,0,0,0,0,.1,0,.1,0,0,0,0,0,0Z"/>
      </g>
      <g>
        <path class="st1" d="M30.6,6.7c.5,0,.3,0,.4,0-.8,0-.3.1-.4,0Z"/>
        <path class="st1" d="M22.7,7.3h.1c-.4,0-.8.1-1.1.2.3,0,.7-.1,1-.2Z"/>
        <path class="st1" d="M15.7,9.5c.3,0,.6-.3,1.1-.5.4-.2.9-.3,1.3-.5.5-.2.9-.3,1.3-.4h.2s.5-.3.5-.3c-1.1.4-2.4.8-3.4,1.2-.4.2-.8.4-1.1.5Z"/>
        <path class="st1" d="M12.1,11.3c.2-.1-.5.5.5-.4,0,0,.2-.1.3-.2,0,0,0,0-.1,0,0,0,0,0-.1,0,0,0-.2.2-.5.4Z"/>
        <path class="st1" d="M12.7,10.8c.6-.4-.4.3,0,0h0Z"/>
        <path class="st1" d="M9.9,13.2l.2-.2.4-.4h.2c0-.1,0,0-.2,0-.2.1-.4.3-.5.4,0,0,0,0,0,0,0,0,0,0,0,0,0,0,0,0,0,0,0,0,0,0,0,0-.7.8-.5.6-.1.2Z"/>
        <path class="st1" d="M9.3,14l.3-.4c0,0-.2.2-.3.4Z"/>
        <path class="st1" d="M10.4,12.7l-.3.3-.4.5c.1-.1.1,0,.3-.4,0,0,0,0,.1-.1,0,0,.2-.2.3-.3Z"/>
        <path class="st1" d="M10.9,12.3c.5-.3,1-.8.3-.1,1.5-1.3,1.2-1.1-.3.1Z"/>
        <path class="st1" d="M15.4,9.8l.7-.3.6-.3c-.3.1-1.3.6-1.3.6Z"/>
        <path class="st1" d="M6.1,18.5c0,0,.2-.3.2-.4l.2-.4.2-.3c0,0-.1.2-.2.3-.2.4-.3.8-.4.8Z"/>
        <path class="st1" d="M6.3,18.1c0,.3-.2.5-.3.8v.3c0-.1,0-.2,0-.3.3-.7.3-.9.3-.8Z"/>
        <polygon class="st1" points="9.2 14.2 10.1 13.1 10.5 12.8 10.1 13.1 9 14.4 9.2 14.2"/>
        <polygon class="st1" points="5.3 22.9 5.3 22.4 5.3 22.3 5.3 22.2 5.3 22.4 5.3 23.4 5.3 22.9"/>
        <path class="st1" d="M5.7,25.8c-.1-.5,0,.7,0,.2,0,.1,0,.3,0,.4,0,.2.1.3.2.5,0,.1.1.3.2.4.1.3.3.5.4.7-.1-.2-.2-.5-.4-.7,0-.1-.1-.3-.2-.4,0-.2-.1-.3-.2-.5,0-.2,0-.3-.1-.5Z"/>
        <path class="st1" d="M7,28.9c-.1-.2-.2-.3-.4-.5,0-.1-.1-.3-.2-.4l.2.4c.1.2.2.3.4.5Z"/>
        <path class="st1" d="M5.6,21.2c0,0,0,.2-.2.9v-.4c.2-.1.2-.3.2-.4Z"/>
        <polygon class="st1" points="5.5 21.6 5.5 21.6 5.4 22.4 5.4 22.6 5.4 22.4 5.5 21.6"/>
        <path class="st1" d="M5.6,21.1s0,0,0,.1c0,0,0,0,0-.1Z"/>
        <path class="st1" d="M7.3,16.5c-.1.2-.3.5-.4.7-.2.5-.3.7,0,0,0,0,0,0,0,0,.2-.4-.2.2.3-.7Z"/>
        <path class="st1" d="M5.8,20.5c0-.4.2-.8.3-1.2,0,0,0,.2,0,0-.1.4-.2.8-.3,1.3Z"/>
        <polygon class="st1" points="5.7 21.1 5.7 20.8 5.8 20.5 5.7 20.8 5.7 21 5.7 21.1"/>
        <path class="st1" d="M6.1,26.9c.1.2.2.4.3.6.1.2.2.5.4.7,0,0,.1.1.2.2,0,0,0-.2-.1-.2-.1-.3-.3-.6-.4-.9-.1-.3-.3-.6-.4-.8,0,0-.2-.4,0,.3Z"/>
        <path class="st1" d="M5.5,24.4s0,0,0,.1c0,0,0-.1,0-.1Z"/>
        <path class="st1" d="M12.4,31.3s0,0-.1,0h0s.1,0,.1,0Z"/>
        <path class="st1" d="M6,26.5c0,0,0-.1,0-.2-.1-.5-.2-.7-.2-.9,0,.3.1.6.2,1,0,0,0,.2.1.3,0,0,0,0,0-.1Z"/>
        <path class="st1" d="M8.3,30.2c-.2-.2-.3-.3-.5-.5,0,0,0,0-.1-.2,0,0,0,0,.1.2.2.2.5.5.5.5Z"/>
        <path class="st1" d="M5.5,24.7s0,0,0,0c0,.2,0,.1,0,0Z"/>
        <path class="st1" d="M5.5,24.7c0,.3,0,.5.1.7,0-.3-.1-.6-.1-.9,0,0,0,.1,0,.2Z"/>
        <path class="st1" d="M13.4,29.6s0,.2-.2.5c-.1.1-.3.3-.5.5-.2.1-.3.3-.5.4-.2,0-.4.2-.7.3h0c-.3,0-.5,0-.6.1,0,0,0,0,0,0,0,0,.3,0,.6,0,.2,0,.4-.1.6-.2,0,0,0,0,.1,0,0,0,.1,0,.2-.2,0,0,.2-.2.3-.3,0,0,.2-.2.3-.3,0,0-.2.2-.3.3-.2.1-.4.3-.5.4-.3.1-.5.2-.7.3-.1,0-.1,0,0,0,0,0,0,0,.2,0,.2,0,.4-.2.5-.2.3-.2.4-.3.5-.4.1-.1.2-.2.3-.2,0,0,0,0,.1-.1,0,0,.1,0,.2-.2,0,0,0-.1,0-.2,0,.1,0,.1,0,0,0,0,0-.2.1-.5,0-.2,0-.4,0-.6-.2-.4-.4-.7-.4-.6.1.2.2.4.3.6v.5s0,.1,0,.1c0,0,0,0,0-.1,0,0,0-.1,0,0,0,0,0,0,0,0Z"/>
        <path class="st1" d="M9.9,31.3l-.4-.3c.3.2.5.3.7.5.2,0,.5.1.8.2,0,0,.1,0,.2,0,.3,0,.5,0,.5,0,.1,0,.2,0,.3-.1,0,0,.1,0,.1,0,0,0,.1,0,.1,0l-.6.2h-.7c0,0-.8,0-.8,0l-.5-.3h.1Z"/>
        <path class="st1" d="M7.7,29.6s0,0,0,0c.3.2.6.5.7.6,0,0,.1,0,0,0,0,0,0,0-.1-.1-.3-.2-.4-.4-.6-.5-.3-.3-.3-.3-.5-.5,0,0-.1-.2-.3-.3,0,.1.2.3.2.4.9,1.2-.6-.7.3.5-.1-.2-.3-.3-.4-.5-.1-.2-.3-.4-.4-.6.1.2.3.4.4.6.1.2.2.3.3.4,0,0,0,0,0,0h0s0,0,0,0c0,0,0-.1,0,0,0,0,0,0,0,0,0,0,0,0,0,0,0,0,0,0,0,0,.2.2.2.2.2.2,0,0,0,0-.2-.2,0,0-.1-.1-.1-.2,0,0,0,0,0,0h0s.2.2.2.2l.7.6,1,.7c-.3-.2-.5-.4-1-.7-.2-.2-.4-.4-.7-.6,0,0,0,0,0,0Z"/>
        <path class="st1" d="M6.6,18.3c0,0,0,0,0,0,0,.1,0,.2,0,0Z"/>
        <path class="st1" d="M6.3,19.2c0,0,0-.1,0-.2,0-.1,0-.3.2-.6.2-.4,0,0,0,0,0-.2.2-.5.2-.6,0,0,0,0,0,0,0,0,0,.1-.2.5v.2c-.1.2-.2.4-.3.6-.2.8-.4,1.4-.4,1.3.1-.3.2-.5.4-1.1Z"/>
        <path class="st1" d="M5.7,24.6c0,.5.2,1.1.3,1.6v.3c.1,0,0-.3,0-.3,0-.2,0-.5-.1-.7h0c-.2-1-.2-.8-.2-.9Z"/>
        <path class="st1" d="M12.6,31.2c0,0,0,0-.2.2h0s0,0,0,0l.5-.5.3-.3-.3.3-.4.3Z"/>
        <path class="st1" d="M13.7,28.7s0,0,0,0c-.1-.2-.2-.4-.3-.6,0,.2.2.3.3.5Z"/>
        <path class="st1" d="M17.9,51l.2-.5c0,.2-.2.4-.2.5Z"/>
        <path class="st1" d="M16,54.3h0s0,0,0,0c0,0,0,0,0,0,0,0,0,0,0,0,0,0,0,0,0,0,0,0,0,0,0,0Z"/>
        <path class="st1" d="M31.4,29.9c-.8.1-1.7.2-1.6.2h.3c.6,0,1-.1,1.4-.2Z"/>
        <path class="st1" d="M19.9,26.4c0,0,0-.1,0-.2,0-.2,0-.4.1-.5,0,.2-.1.5-.2.8Z"/>
        <path class="st1" d="M19.9,27h0c0,.1-.2.7-.2.7v.3c0,0,0-.2,0-.3,0-.2.1-.4.2-.6,0,0,0,0,0-.1Z"/>
        <path class="st1" d="M28.4,35.7l.5.4h0s0,0,0,0c-.8-.7-.4-.4-.5-.4Z"/>
        <path class="st1" d="M25.3,11.7c.7,0,1.3-.1,1.8-.1-.9,0-1.6,0-1.8.1Z"/>
        <path class="st1" d="M17.8,52.7c0-.1,0-.3,0-.3,0-.1,0-.2,0-.2,0,0,0,.1,0,.2,0,.2-.1.4,0,.3Z"/>
        <path class="st1" d="M29.1,11.6c-.1,0-.2,0-.4,0-.2,0-.4,0-.7,0-.3,0-.6,0-.9.1.2,0,.3,0,.5,0,.2,0,.3,0,.5,0,.2,0,.3,0,.5,0,.2,0,.4,0,.5,0Z"/>
        <path class="st1" d="M44.6,26.9s0-.1.1-.1c0,0,0,0-.1.1Z"/>
        <path class="st1" d="M37.8,8.1c.2,0,.5.2.9.3,0,0,0,0,0,0,0,0,0,0,0,0-.2,0-.4-.2-.9-.3Z"/>
        <path class="st1" d="M12.8,19.4c-.2.5,0,0,0,0h0Z"/>
        <path class="st1" d="M11.8,21.8c0-.1,0-.2,0-.2,0,0,0,.1,0,.2Z"/>
        <path class="st1" d="M34.3,12.1s0,0,0,0c-.1,0-.1,0,0,0Z"/>
        <path class="st1" d="M12.5,20.2c0-.2.2-.4.3-.6,0,0-.1.3-.3.6Z"/>
        <path class="st1" d="M12.5,20.1c0,.2-.1.3-.2.4,0,0,0,0,.2-.4Z"/>
        <path class="st1" d="M13.1,18.8c0,.1-.1.2-.2.3,0,.2-.1.3-.2.4,0,0,0-.1,0-.1v-.3c.1,0,.3-.3.3-.3Z"/>
        <path class="st1" d="M46.8,57.7s0,0,0,0c0,0,0,0-.1-.1,0,0,0,0,0,0,0,0,0,0,0,0,0,0,.1.1.2.3Z"/>
        <path class="st1" d="M26.3,23.7s0,0,0,0c0,0,0,0,0,0h0Z"/>
        <path class="st1" d="M26.9,21.9c-.2.7-.3,1.1-.5,1.6,0,0,0,.1,0,.2,0,0,0-.1.1-.1,0-.1.2-.2.2-.4,0-.4.1-.8.2-1.3Z"/>
        <path class="st1" d="M21.1,41.7c-.1.4-.2.9-.4,1.3.2-.9.3-1.6.4-1.9,0-.1,0-.2,0-.2,0,0,0,0,0,.2,0,0,0,.2-.1.4,0,0,0,.6-.3,1.4-.2.7-.5,1.6-.8,2.4,0,.2,0,.4-.1.6-.1.4-.2.8-.2.8-.1.3-.2.5-.3.8,0-.2.1-.3.2-.5-.7,1.6-.3,1.3-1.1,3.3-.3.7-.5,1.2-.4.7l-.5,1.2v.4c-.3.5-.3.3-.1-.1l-.3.9-.3.5-.7.4h0s0,0,0,0c-.2.1-.6.3-.9.4-.2,0-.4,0-.6,0-.7,0,.3,0,.2,0h-.7s-.7-.1-.7-.1c-.2,0-.2,0,0,0,0,0,.2,0,.3,0,.1,0,.3,0,.4,0,.3,0,.6,0,.9,0-.2,0-.4,0-.5,0,0,0-.1,0-.2,0,0,0,0,0-.1,0-.2,0-.6-.1-1-.2-.1,0-.6-.4-.8-.5,0,0-.3-.6-.3-.7h0s0,0,0,0l.4.7.2.2c0,0-.2-.2-.2-.2,0,0-.3-.6-.3-.6h0s0,0,0,0c0,0,0-.1,0-.2,0,0,0-.1,0-.2h0c0-.1,0-.1,0-.1,0-.2.2-.3.2-.5.1-.2.2-.4.3-.6,0,0,0,0,0-.1,0,0,0,0,0,.1,0,.1-.2.3-.3.5,0,.1-.1.2-.2.3,0,0,0,.1,0,.2h0c0,0,0,0,0,0,0,0,0,0,0,0,0,0,0,0,0,0,0,0,0,.1,0,.2,0,0,0,.2,0,.2,0,0,0,0,0-.5,0,0,0,0,0,0,.1-.3.3-.6.6-1.1,0-.1.1-.3.2-.5,0,0,.2-.3.4-.7,0-.2.1-.4.2-.6,0-.1.1-.2.2-.4h0c.2-.3.3-.5.4-.7,0-.3,0-.4.2-.8.2-.5.4-.9.5-1.1.1-.2.2-.3.3-.5,0,0,0,0,0,0,0-.3.1-.5.1-.6,0,0,0,0,0,0,0,0,0,0,0,0,0,0-.1.3-.1.4,0,0,0,0,0-.4,0,0,0-.2.1-.4.1-.3.2-.6.3-.8,0-.2,0-.4.1-.6,0-.2.1-.4.2-.6,0-.2,0-.5.1-.7,0-.1,0-.3.1-.4,0-.2,0-.5.1-.7,0-.2.1-.5.2-.7,0,0,0,0,0,0,0-.1.1-.2.1-.3,0-.2,0-.2,0-.2,0,0,0,0,0,.2,0,.2,0,.3,0,.1h0c0-.5.1-.7.2-1.1,0-.2,0-.2,0-.1.2-.9,0,0,.3-1.4,0-.1.1-.6.3-1.2.2-.6.5-1.3.6-2,0-.2.1-.4.2-.6,0-.2,0-.4.1-.6.1-.4,0,.2,0,0,0-.4.2-.8.1-.8,0-.3.2-.5.2-.6,0-.3,0-.5.1-.6,0-.2.1-.4.2-.6,0-.3.1-.7.2-1.2h0s.2-.6.2-.6l.2-.9c-.2.8-.2.4,0-.4,0-.2.1-.4.2-.6,0-.2,0-.4.1-.6h0s0,0,0,0c0,.3-.1.5-.2.6,0,.2-.1.3-.1.3v-.3c.1,0,.2-.6.2-.6l.4-1.1c0-.2,0,0,0,.3,0-.1,0-.3.1-.4.3-.7.2-.3,0,.2-.1.2-.2.5-.3.7,0,0,0,.2,0,.3,0,.4,0,.7,0,.7,0-.1,0-.4.1-.6,0,0,0,0,0,0,0,0,0,0,0,0,0,0,0,.1,0,0,0,0,0,0,0,0,0-.1,0-.3.1-.5l.2-.4h0c0-.1.3-1,.3-1,.1-.3.2-.6.3-.9l.3-.7v-.2c.2-.2.3-.4.4-.6.1-.3.2-.5.3-.8.1-.2.2-.4.3-.6.1-.3.2-.6.3-.9.1-.3.3-.6.5-.9.2-.2.3-.5.5-.8.2-.2.4-.4.6-.7.2-.2.5-.4.7-.7-.5.6,0,.2,0,.3-.3.2-.8.7-1.2,1.1-.2.2-.3.5-.5.8-.2.3-.3.6-.5.9,0,.2-.1.3-.2.5.1-.2.2-.4.2-.5,0-.1,0,0,0,0,0,0,0,0,0,0h0s.5-.9.5-.9l.5-.8c.2-.2.4-.5.6-.7,0,0,.5-.4,1.1-.9-.2.1,0,0,.3-.4.2-.2.5-.4.8-.7.3-.2.5-.3.8-.5.2-.1.4-.2.6-.3,0,0,0,0,0,0,0,0,0,0,0,0,0,0-.3.2-.6.3-.2.1-.4.3-.7.4.3-.1.6-.3.7-.4.2,0,.5-.2.6-.3.2,0,.4-.1.6-.2.2,0,.4,0,.6,0,.2,0,.5,0,.7,0h0s0,0,0,0c-.3,0-.5,0-.6,0,.2,0,.4,0,.6,0,.2,0,.4.1.5.2.2.1.4.3.5.4,0,.1.2.3.2.3,0,0,0,0,0,0l-.2-.3c0,.1.2.2.3.4,0,.1,0,.3,0,.4,0,.1-.2.3-.2.4-.3.2-.7.4-1.1.7-.2.1-.4.3-.5.4-.2.2-.3.4-.5.5-.1.2-.3.4-.4.5,0,.2-.2.4-.3.6-.1.2-.3.4-.4.6-.1.2-.2.3-.3.5-.2.3-.2.5-.3.6,0,0,0-.3,0-.5-.1.2-.2.5-.3.7,0,.2-.2.5-.2.7-.1.5-.3,1-.4,1.5l-.2.6v.5c0-.4-.7.7-.3-.6,0-.1,0-.2.2-.4,0,.1-.1.2-.2.4,0,.2-.1.4-.2.6,0,.2,0,.3-.1.6,0,.2-.2.5-.2.8.1-.4.4-.9.3-.4-.2.5-.3.8-.4.9,0,.2-.1.4-.2.6,0,.2-.1.3-.2.6,0,.1,0,.3-.2.5,0-.3.1-.2,0,.1,0,.2,0,.4-.2.6,0,0,0,.1,0,.2,0-.1-.1,0-.1-.3,0,0,0,0,0,0h0c0,0-.1.7-.1.7v.6s.3.4.3.4h.7c0,.1.1.1.1.1,0,0,0,0-.1,0-.2,0-.2,0-.2,0,0,0,0,0,.2,0,.2,0,.3,0,.5,0,0,0,0,0,.2,0,.5,0,1.9-.2,2.4-.2h-1c1.3,0,1.9-.1,2.5-.3.6-.1,1.2-.3,2.5-.6-.1,0-.3.1-.3.2,0,0,.2,0,.9-.1.3-.1,1.1-.4,2-.9.5-.3,1.1-.7,1.7-1,.2-.1.3-.2.5-.4h0c0,0,.4-.3.4-.3l.6-.5.4-.4.2-.3c0,0-.1.2-.2.3-.1.1-.2.3-.4.4-.3.3-.6.6-.9.9-.1.1-.3.3-.5.4-.6.4-1.2.8-1.7,1-.4.2-.6.3-.8.4.6-.2.5-.2.8-.3.1,0,.4-.2.8-.4.4-.2-.2.2-.7.4-.1,0-.3.1-.4.1h.4c.6-.4,1.2-.7,1.8-1l.5-.4.3-.3c0,0,.3-.3.7-.6.1-.1.3-.3.4-.4.2-.2.3-.4.4-.5,0,0,0,0,0-.1,0,0,0,0,0,0,0,0,0,0,0,0v.3c-.1,0-.6.5-.6.5l-.4.4-1,.9-.5.4h-.2c0,0,0,0,.2,0,.1-.1.3-.2.5-.4.3-.3.6-.5,1-.9.1-.1.3-.3.4-.4.1-.2.3-.3.4-.5,0-.2.2-.4.3-.6,0-.1.2-.3.3-.4.4-.5-.1.5,0,.4,0,0,.1-.3.3-.5.2-.3.4-.8.6-1.1.1-.3.2-.5.2-.6l-.2.6-.2.4c0-.1.1-.2.2-.4.2-.5.3-.8.4-1.3.1-.6.2-1.2.4-2,0-.1,0-.2,0-.4,0-.6,0-1.1,0-1.4,0,0,0,0,0,0,0,0,0,0,0,0,0,.9-.3,1.1-.4.5,0,0,0-.2,0-.4,0-.1,0-.3-.1-.6,0-.2,0-.4,0-.6-.1-.4-.3-.9-.4-1.2-.1-.2-.2-.4-.3-.5-.3-.6.3.2.5.4,0,0,0,.1,0,.1,0,0,0,0,0-.1,0,0,0,0,0,0,0,0-.3-.4-.5-.6-.1-.2-.1-.2-.1-.2,0,0,0-.1-.4-.6,0,0-.3-.3-.5-.6-.2-.2-.4-.4-.5-.4,0,0,0,0,.5.4,0,0,0,0,.1.2,0,0,0-.1-.1-.1-.2-.2-.4-.3-.5-.4-.5-.3-.7-.5-1.6-1,.4.2-1.2-.4-2.4-.8,0,0-.2-.1-.3-.2-.1,0-.3-.1-.4-.2-.7-.1-1.3-.3-1.9-.4-.5,0-1-.1-1.5-.2-.1,0-.3,0-.4,0-.6,0-1.2-.1-1.9-.2,0,0-.1,0-.2,0-.4,0-1,0-.7,0-.3,0-.6.1-1.4.2-1.4,0,1.6-.2.5-.2,0,0-1,.2-1.9.3-.4,0-.7.2-1,.2.1,0,.5,0,1-.2.8,0,1.8-.2,2.4-.3,0,0-.9.3-2.4.5-.4.1-.9.2-1.4.3-.1,0-.2,0-.3.1-.9.4-1.1.4-1.1.4,0,0,.2,0,0,0-1.7.6-2.4.9-3,1.2-.3.2-.6.3-.9.5-.3.2-.8.5-1.3.8,0,0-.1,0-.2.1-1,.7-.1,0-.4,0,.2-.1.3-.3.4-.4.5-.3,1-.5,1.4-.8.4-.2.8-.4,1.2-.6-.4.2-.8.3-1.2.6.4-.3,1.4-.7,1.9-.9-.2,0-.7.2-1.3.5-.6.3-1.3.7-2,1.1-.3.3-.6.5-.9.8l-.5.5c-.2.2-.4.3-.6.5-.1.2-.3.3-.4.5-.4.5-.8,1.1-1.1,1.6,0,.2-.2.3-.3.5-.1.3-.2.6-.1.4l.2-.3.3-.4c.3-.4,0,.1-.2.5-.1.3-.2.5,0,0-.2.5-.5,1.1-.6,1.8,0,.4-.2.8-.3,1.2,0,.2,0,.4,0,.5,0,.2,0,.3,0,.5,0,0,0,.1,0,.1,0,0,0,0,0,.1,0,0,0,0,0-.1,0-.1,0-.4,0-.6,0-.2,0-.4,0-.5,0,0,0-.2,0-.2,0,0,0,.1,0,.2,0,.2,0,.3,0,.5,0,.2,0,.4,0,.6,0,.4,0,.9,0,1.3,0,.2.1.4.2.6v-.6c-.1,0,0-.5,0-.5,0,.2,0,.4,0,.5,0,.3.2.8.3,1.1,0,.2.2.3.3.5,0,.2.2.4.2.5.2.4.3.7.5,1.1-.2-.6-.2-.3-.5-1.3,0,.2,0,.1,0,0,0,0,0-.2-.2-.4,0-.1-.1-.3-.2-.5,0-.3-.2-.9-.3-1.1,0,0,0-.2,0-.2,0,0,0-.1,0-.1,0,0,0,0,0,.3,0-.4,0-.8,0-1.2,0-.2,0-.4,0-.6,0-.2,0-.3,0-.5,0-.3.2-.5.2-.9,0,0-.1.4,0-.3,0,0,0-.2.1-.4,0,0,0-.2,0-.3,0,0,0,0,0,0,0,0,0,0,0,0,0,0,0,0,0,0-.1.3-.2.5-.2.6,0-.3.3-1.1.6-1.8.3-.5.6-.9.7-1.2.4-.6-.1.3,0,0,.2-.3.3-.6.5-.8,0,0,0,0,0,0,0,0,.3-.3.5-.4,0,0,.2-.1.2-.1,0,0,0,0-.2.2,0,0-.2.2-.3.3l.3-.3c.3-.2.6-.5.8-.7,0,0,.2-.1.2-.2.3-.2.7-.5.9-.7.2-.1.4-.2.6-.4.2-.1.4-.2.6-.3.6-.4,1.6-.9,1.1-.6.7-.3,1.5-.6,2.3-.9h0c.3-.1.7-.2,1.1-.4.3-.1.7-.3,1-.4.4,0,1-.2,1.4-.3,1-.1,2.2-.2,3.3-.3.2,0,.4,0,.7,0,.4,0,.9,0,1.4.1.1,0,.3,0,.4,0,.3,0,.7,0,1.2.1h.3c0,0,0,0,0,0,.4,0,1.2.3,1.8.4.2,0,.3.1.5.2.2,0,.3.1.4.2.3.1.5.2.6.2.3.2.7.4,1.3.6.5.3,1.2.6,1.7,1l.5.4c.1.2.3.3.4.5.1.2.3.3.4.5.2.3.4.7.6.9,0,0,0,.1,0,.2h0c0,.2.1.3.2.5,0,.1,0,.3.1.4,0,.2,0,.4,0,.6,0,.2,0,.4.2.6,0,.4.1.8.2,1.2,0,.2,0,.3,0,.5h0c0,.4-.2,1.1-.3,1.8-.1.4-.3.8-.4,1.2-.2.3-.4.7-.6,1.1-.1.2-.2.4-.4.6l-.2.5c0,0,.1-.2.2-.5.1-.2.2-.3.3-.5l-.3.5-.3.5-.4.4-.4.4c-.3.3-.7.6-1,.8l-.5.3c-.5.3-1.1.7-1.7.9-.2,0-.4.2-.7.2-.2,0-.4.1-.7.2-.5.2-.9.3-1.3.4,0,0,0,0,.1,0,0,0-.1,0-.2,0-.2,0-.5,0-.8.1.2,0,.5,0,.7-.1-.4.1-1.1.2-1.7.4h-.3c0,0,0,0-.1,0-.6,0-.5,0-.2,0-.3,0-.6,0-.9.1-.5,0-1.7.1-2.5.1,0,0-.2,0-.4,0-.2,0-.4,0-.6,0-.1,0-.3,0-.5-.1h-.1c0-.3,0-.4,0-.6,0-.2,0-.4.1-.6,0-.2.1-.4.1-.5,0,0,0-.2,0,.1v-.3c.1-.2.2-.4.3-.6,0-.2.1-.4.2-.6,0-.2,0-.4.1-.6,0,0,0,0,0,0,0,0,0-.1.1-.2l.3-1v-.6c.1,0,.1,0,.1,0,.1-.2.2-.5.2-.6.2-.3.2-.3,0,0,0,0,0,.1,0,.2,0,0,0-.2,0-.2.1-.3.2-.5.3-.6.2-.6.3-1,.4-1.3.1-.3.3-.7.6-1.5h0s0,0,.1-.2c.1-.2.2-.3.4-.5.1-.2.2-.4.3-.5.1-.2.2-.4.3-.5,0,0,0,0,0,0,0-.1.2-.2.4-.4.1-.2.3-.3.5-.5.2-.1.3-.3.5-.4.3-.2.7-.5,1.1-.7.1-.2.2-.4.3-.7,0-.2,0-.4,0-.7-.1-.2-.3-.4-.4-.6-.2-.1-.4-.3-.6-.5-.2,0-.4-.2-.6-.2-.3,0-.5,0-.8,0h-.7s-.7.1-.7.1c-.2,0-.5.2-.7.3-.3.2-.6.3-.8.5-.3.2-.6.5-.9.7-.2.2-.5.4-.7.6.3-.2,0,0-.3.4-.2.2-.4.4-.6.5-.2.2-.3.4-.4.5,0,0,0,.1,0,.1-.2.2-.5.6-.2,0-.1.2-.2.4-.4.5-.2.3-.4.6-.5.9-.1.3-.3.6-.4.8-.1.2-.2.4-.4.6-.1.3-.2.5-.3.8,0,.1-.1.3-.2.4-.2.2.2-.4,0-.2,0,.1-.2.3-.3.6,0,.1,0,.2-.1.2,0,.1,0,0,0-.3,0-.1.1-.2.2-.4,0,.1-.1.2-.2.4-.1.3-.2.5-.3.7-.3,1.1-.3,1.2-.2,1.4-.3.6-.4,1.1-.6,1.5,0,.2,0,.4-.1.6,0,0,0,.1,0,.2,0,.2-.2.4-.2.4,0,0,0,0,0,0,0,0,0-.1.2-.6,0,0,0,0,0-.1,0,0,0,0,0,.1,0,.1-.1.3-.2.6,0,.4-.2.8-.3,1.2,0,.2-.1.4-.2.6-.1.5-.2.9-.3,1.2,0,.3-.2.5-.2.6,0,0,0,0,0,0,0,0,0,.3-.1.6,0,.3-.2.5-.2.6,0,0,0,0,0,0-.1.5-.2.9-.3,1.2,0,.2-.1.4-.2.6-.1.4-.2.8-.4,1.5v-.4c0,.7-.3,1.3-.5,2.6h0c-.2.6-.3,1-.4,1.3,0,.3-.1.5-.2.6,0,.1,0,.2-.1.3,0,.2-.1.4-.2.8,0,.2,0,.4-.2.7,0,0,0,.2-.2.4,0,0,0,0,.1-.1,0,0,0,0,0,.2,0,.2,0,.4-.1.7,0,.2-.2.4-.2.6,0,.2-.1.4-.2.6-.2.4-.3.8-.5,1.2,0,.2,0,.4-.1.6,0,.1,0,.2-.1.3v-.3c.1,0,.2-.3.2-.3,0,0,0,.2,0,.3-.1.3-.3.7-.5,1.1,0,.2-.2.4-.3.6,0,.2-.2.4-.3.6-.1.2-.3.5-.4.7-.1.2.1-.3.3-.6-.3.5-.4.8-.5,1-.1.3,0,.3,0,.3,0,0,0,0,0,.4,0,.1,0,.2-.2.4-.2.3,0-.4-.4.7,0,0-.1.2-.2.4,0,.1-.1.2-.2.3,0,.1-.1.3-.2.5,0,.3,0,.6,0,.9.2.3.4.6.5,1,.4.2.7.5,1.1.7.5.1.8.2,1.2.3,0,0,.1,0,.2,0,0,0-.1,0-.2,0-.1,0-.2,0-.2,0,0,0,0,0,0,0,0,0,0,0,.3,0,0,0,.1,0,.3,0,.3,0,.6,0,1,0,.3-.1.7-.3,1.1-.4.3-.2.5-.3.8-.5.1-.2.3-.4.4-.6,0-.2.2-.5.2-.7,0-.2.1-.4.2-.6,0,0,0,0,0,0,0,0,0-.1,0-.1.2-.5.5-1.2.8-2,.3-.7.5-1.4.6-1.7.2-.3.6-1.4,1-2.5,0-.2,0-.4.1-.6.2-.7.5-1.4.6-2,.2-.5.3-.9.3-.9.1-.4.2-.9.3-1.3l.2-.6v-.6c.1,0,.3-.6.3-.6h0c0-.2.2-.4.3-.7.1-.5.2-.9.3-1.2,0-.3,0-.6.1-.8,0-.2,0-.4.1-.6.1-.4,0-.1,0,0,0-.3.2-.6.3-.9,0-.2.2-.3.3-.5.1,0,.2-.2.3-.3.2,0,.3,0,.5,0,.2,0,.5,0,.7.1.2,0,.4,0,.6,0,.3.1.8.3,1.2.5,0,0,.1,0,.2.1l.2.2c.1,0,.3.3.6.5.1.1.3.3.5.5.1.2.3.4.5.6.2.3.4.7.6,1,.1.3.4.8.6,1.2,0,.2.1.4.2.6.1.5.3,1.1.4,1.6,0,0,0,0,0-.3.1.6.3,1.2.4,1.8.1.6.3,1.3.4,1.9,0,.2,0,.4,0,.6,0,.2,0,.4.1.7,0,.2.1.4.2.6,0,.5.2.9.3,1.3,0,.4.2.8.3,1.1,0,.1,0,.2,0,.3,0,.1,0,.2,0,.3,0,0,0,.1,0,.1l.2.5.2.6.2.5v.3c0-.1,0-.3,0-.3,0-.3-.2-.4-.2-.6,0-.3,0-.2,0,0,.1.3.3.7.2.2,0,.1,0,.2.1.3,0,.2,0,.4.1.6,0,.2.1.5.2.6.1.3.2.4,0,0,0,0,0,0,0-.2v-.2c-.1-.1,0,0,0,.4.1.3.4.7.6,1.1.3.8.7,1.6.7,1.6.1.2.3.4.4.7l.4.5.4.5c.3.4.5.7.8,1,.4.4.8.7,1.2,1,.4.3.8.6,1.2.9.5.2.8.4,1.3.6.2,0,.5.2.7.3.5,0,.8.2,1.3.3.5,0,1,.1,1.4.2.3,0,.6,0,.9-.1.3,0,.6-.2.9-.3.2-.2.4-.3.6-.5.2-.2.3-.4.5-.5.1-.2.2-.4.3-.6,0-.2.1-.5.2-.7,0,0,0-.2,0-.2,0,0,0,.1,0,.2,0,.1,0,.1,0,.2v.2c0,0,0-.4,0-.4v-.6s-.2-.7-.2-.7l-.2-.2c-.1-.1-.3-.3-.2-.3,0,0,0,0,.1.1,0,0,0,0,.1.1,0,0,.1.1.2.2,0,.1,0,.3.1.5,0,0,0-.1,0-.2,0,0,0-.2,0-.3-.1-.2-.3-.3-.5-.5-.1,0-.2,0-.3,0,0,0-.1,0-.2,0-.1,0-.3,0-.4,0-.2,0-.4,0-.4,0-.3,0-.5-.1-.7-.1-.3-.1-.2,0,0,0,.4,0,1.3.2.9.1-.3,0-.6-.1-.9-.2h-.1s.1,0,.1,0h0s0,0,0,0c-.3,0-.4-.1-.6-.2-.1,0-.3-.1-.6-.2-.1,0-.3-.2-.6-.3,0,0-.1-.1-.3-.2-.8-.6-.4-.3-.7-.6,0,0,0,0,0,0,0,0-.2-.1-.4-.3h0s-.8-.9-.8-.9l-.4-.8.3.8c-.5-.8-1-1.9-.6-.9,0-.2-.2-.4-.3-.7-.3-.4-.6-1-.9-1.6-.2-.6-.4-1.2-.6-1.8-.1-.6-.3-1.2-.4-1.8,0-.2-.1-.4-.2-.6,0-.2,0-.4-.1-.6,0-.5-.1-.9-.1-1.2,0-.2,0-.3,0-.4-.1-.4-.2-.9-.3-1.3,0-.2,0-.4-.1-.7,0-.2-.1-.5-.2-.7,0-.2-.1-.5-.2-.7,0-.3-.1-.6-.2-1,0,.4,0,.7-.3-.8,0,.1,0,0,0-.2-.1-.3-.3-.8-.5-1.3,0-.2-.1-.3-.2-.5-.1-.2-.2-.4-.4-.6-.2-.4-.3-.7-.4-.9.1.3,0,.1-.2-.3-.1-.2-.2-.4-.4-.6-.3-.3-.6-.7-.9-1-.2-.2-.3-.4-.3-.4v.3s0,0,0,0v-.2s0,.1.2.3c0-.1-.1-.2-.2-.3v.2c.2-.2.2-.2.2-.1,0,0,0,0,0,0,0,0,0,0,0,0,0,0,.1,0,.2,0,.1,0,.3,0,.4-.1.2,0,.5,0,.7,0,.6-.2,1.2-.3,1.8-.4.3-.1.5-.2.8-.3.3,0,.5-.2.8-.3.3,0,.5-.2.8-.2.3,0,.5-.2.8-.3.3-.1.6-.3.8-.4.3-.2.5-.3.8-.5.2-.1.3-.3.5-.4.2-.1.4-.2.6-.3.1-.1.3-.2.4-.3,0,0-.4.3,0-.2,0,0,0,0,0,0l.4-.3.5-.4.5-.4h0c.2-.3.2-.4.4-.5.2-.3.3-.4.7-1.1,0,0,0,0,0-.1,0,0,0,0,0,.1,0,.1-.1.2,0,0,0,0,0,0,0-.1l.2-.4.4-.6c.2-.4.3-.8.5-1.2,0-.4.2-.7.3-1,.1-.3.2-.7.3-1.1,0-.4.1-.7.2-1.1v-1.1c.1,0,.1-1.3.1-1.3v-.6c0,0-.2-.6-.2-.6-.2-.6-.4-1.2-.6-1.8l-.8-1.7-.3-.6-.4-.5-.4-.5-.9-1c-1-.8-2.1-1.5-3.2-2.2-.4-.2-.9-.4-1.3-.7.9.5.3.2-.4-.1.4.2,0,0,0,.1h-.1c-.7-.3-1.3-.5-2-.8h-.4c0,0-.3-.2-.3-.2-.1,0-.3,0-.5-.1-.4,0-.8-.2-1.2-.2-.4,0-.9-.2-1.2-.2-.3,0-.5,0-.5,0h.5s.4.1.4.1c-.6,0-.2,0,.3.2.6.1,1.2.4,1.1.4.1,0,.3,0,.4,0,.3,0,.5.2.9.3.1,0,.3,0,.4,0,.6.2,1.3.4,1.9.7.5.3,1.2.6,1.7.8h.2c.4.4-.4,0-.2,0,.3.1.6.3.9.5.4.2.8.5,1.3.9h-.1c.4.2.8.5,1,.7.6.7,1.2,1.3,1.7,2,0,.2.2.4.3.5.2.5.4,1,.7,1.6.1.3.2.6.3.9.1.3.2.7.3,1,0,.2,0,.4.1.6,0,.1,0,.3,0,.5v-.3c0,.2,0,.3,0,.4,0,.5,0,.7,0,1,0,.2,0,.2,0,.2,0,0,0,0,0-.2,0-.2,0-.6,0-1,0-.2,0-.5,0-.6,0,0,0,0,0,0,0,0,0,0,0,0,0,.1,0,.3,0,.5,0,.3,0,.8,0,1.2,0,.6-.1,1.4-.3,2.1-.2.7-.5,1.5-.6,2.1-.2.4-.3.8-.4.9,0,0,0,.2,0,.2,0,0,0,.1,0,.2,0,0,0,0,0,0,0,0,0,0,0,0,0,0,0,0-.2.4,0,0,0,0,0,0l-.2.3c0,0,0,.1,0,.2,0,0,0,0,0,.1-.3.5-.6.7-.7.9-.1,0-.2.2-.2.2,0,0,0-.1.2-.2.1-.2.2-.3.3-.5-.1.1-.2.3-.4.5-.1.1-.3.3-.4.5-.1.1-.3.3-.4.4-.2.1-.3.3-.5.4-.2.2-.3.3-.4.4-.2.2-.4.3-.4.4l.4-.3.4-.4h.1c0,0,0,0-.1,0-.1.1-.3.3-.4.4-.2.1-.3.3-.5.4-.2.1-.4.2-.6.3-.2.1-.3.3-.5.4-.2.2-.5.3-.8.5-.3.1-.5.3-.8.4-.2,0-.5.2-.8.3l-.8.3-.8.3c-.2.1-.5.2-.7.3-.6.1-1.2.3-1.8.4-.2,0-.5,0-.7,0-.3,0-.5.2-.8.2-.1,0-.2.2-.3.2h-.2c0,.1.1.3.1.3,0,0,.1.2.2.3v-.2c0,.1,0,.3.1.4.4.4.7.7.9,1,.1.2.2.4.3.5.2.3.3.7.6,1.2.1.2.2.4.4.6,0,.1.1.3.2.5,0,0,0,.1,0,.2h0c0,0,.1.3.2.5,0,.2.2.4.3.6,0,.3.1.6.2.9-.2-.7.3,1.4,0,.4,0,.2.1.5.2.6,0,.3.2.5.2.7.1.5.2.7.2.9,0,.2.1.4.3,1.2,0,.2,0,.3,0,.5,0,.2.1.4.1.5,0,.2,0,.5.2,1.2,0,.1,0,.3.1.5-.3-1.2.1,1-.2-.4,0,.2,0,.4.1.5,0,.2.1.4.2.6,0,.3.1.7.2.9,0,.3.1.6.2.8.3.7.5,1.3.7,1.8.2.4.4.7.6,1.1.6.7-.1-.3-.5-1.1-.2-.6-.4-1-.2-.7-.1-.4,0,0,.3.7.2.4.5.9.8,1.3,0,.1.1.2.2.3.1.2.2.5.3.7.1.3.2.6.4,1,.3.3.5.6.9,1,.2.1.4.3.6.5-.2-.2-.2-.2-.4-.3.4.3.8.6,1.3,1,.2.1.4.2.6.4.2,0,.4.2.6.3h.1c.2,0,.4.1.6.2.5,0,1,.2,1.1.1-.4,0-.7-.1-1.1-.2l-.7-.2-.5-.2.5.2c.2,0,.4.1.7.2.3,0,.6,0,.9.1.2,0,.3,0,.5,0,.1,0,.3,0,.5,0,.1.1.2.2.3.4,0,.2,0,.4.1.6,0,.2,0,.3,0,.5,0,0,0-.3,0-.5,0-.2-.1-.4-.2-.6,0,0,0,0,0,0h0c0,.2,0,.5.1.6,0,.2,0,.3,0,.5,0,.1,0,.4-.1.5,0,0,0-.3,0-.6,0-.1,0-.3,0-.5,0-.2,0-.3-.1-.5,0,0-.2-.2-.3-.3h-.4c-.2-.1-.3-.1-.5-.2-.3,0-.6,0-.9-.1,0,0,0,0-.1,0,0,0,0,0,0,0,.3,0,.6.1,1,.2.2,0,.3,0,.5,0,.1,0,.2,0,.3,0,0,0,0,0,0,0,0,0,0,0,0,0,0,0,0,0,0,0,0,0,.3.2.3.2,0,0,0,0,0,0v.2c0,0,0,.2.1.3,0,.2,0,.3,0,.5,0,.2,0,.4-.1.6,0,.2-.2.3-.3.5-.1.1-.3.3-.4.4-.2.1-.3.2-.5.4h0c0,0,0,0-.1,0-.1,0-.5.2-.8.3,0,0-.1,0-.2,0,0,0,.2,0,.2,0l.6-.3c-.2,0-.5.2-.6.2-.2,0-.6,0-.8.1-.4,0-.9-.1-1.3-.2-.3,0-.7-.2-1-.2.5.1.9.2,1,.2,1,.1-.2,0,.7.2-.3,0-.5,0-.7,0-.5-.1-1-.2-1.2-.3-.2-.1-.4-.2-.6-.3-.1,0-.3-.2-.5-.3,0,0-.2-.1-.3-.2-.1,0-.2-.1-.4-.2,0,0-.2-.1-.2-.2,0,0-.2-.2-.3-.3-.2-.2-.5-.4-.8-.6.2.2.6.5.8.7.3.2.4.3,0,0-.6-.4-1.3-1-1.6-1.4,0,0-.1-.1-.2-.2-1.3-1.5.4.5-.3-.2-.2-.3-.4-.6-.6-.8-.1-.1-.2-.3-.3-.4-.1-.1-.3-.3-.4-.5,0,0,0,0,0-.1h0c-.6-1-.7-1.4-.8-1.5,0-.2-.1-.1-.3-.5-.1-.2-.3-.5-.5-1l.6.9-.6-1.1h0c0,0,0,0,0,0,0,0,0,0,0,0,0,0,0,0,0,0,0-.2-.2-.4-.2-.6,0-.2-.1-.4-.2-.6,0-.2-.1-.4-.2-.6,0-.2,0-.4-.1-.6,0-.2-.1-.4-.2-.6,0,0,0,0,0,0,0,0,0,0,0,0,0,0,0,0,0,0,0,0,0-.3-.1-.6,0-.3-.1-.6-.2-1-.2-.9.2.5-.3-1.3.1.4.3.8.4,1.6,0,0,.1.4.2.5,0-.3-.1-.7-.2-1.1-.1-.4-.2-.8-.3-1.2,0-.2-.2-.5-.2-.6h0s0,0,0,0c0,.2.2.5.2.6l-.2-.6-.2-.6v-.5c0,0-.3-.8-.3-.8,0-.4,0,0,.1.2-.1-.5-.3-.9-.4-1.7,0,.2.1.1.4,1.2l-.6-2.5c0-.2-.2-1.3-.1-1,0-.2,0-.4-.2-.7,0-.2-.2-.4-.2-.7-.2-.4-.4-.7-.6-1.2-.3-.4-.5-.6-.7-1l-.5-.7c-.2-.2-.4-.3-.5-.5h0c0,0-.2-.2-.6-.4-.2-.1-.3-.3-.5-.4-.5-.3-.8-.4-1.3-.6-.2,0-.5,0-.7,0-.3,0-.5,0-.8-.1-.2,0-.5,0-.7,0-.2.2-.4.3-.6.5-.1.2-.2.4-.3.7,0,0,0,.2,0,.3l-.4,1.1c0,0,0,.1,0,.1,0,.4,0,.4,0,.4,0,0,0-.2.1-.3,0-.2.1-.2,0,0,0,.2,0,.5-.2,1,0,.6-.2.9-.2,1,0,.2,0-.1-.2.3,0,.3-.2.6-.3,1,0,.2,0,.4-.1.6,0,.2-.1.4-.2.6-.2.7-.3,1.4-.6,2.1.2-.6.3-1,.4-1.5ZM11.8,52.6c0,0,0,.2,0,.3,0,0,0,.1,0,.2h0c0,0,.1.3.2.4,0,.1.1.2.1.3,0-.1-.2-.2-.2-.3,0-.1-.1-.3-.2-.3,0,0,0-.1,0-.2,0-.1,0-.2,0-.3ZM20.9,23.6s0,0,0,0c0,.3-.2.7-.4,1.2.1-.3.2-.7.4-1.2,0,0,0,0,0,0ZM16.4,15.1s0,0,0,0c0,0,.2-.1.2-.2.1,0,.2,0,.2,0,0,0,0,0-.2,0,0,0-.2.1-.3.2ZM15,16.3c-.1.1-.1.1,0,0,0,0,.4-.4.7-.7-.1,0-.3.2-.7.6ZM42,55l.3.2c-.6-.5-.5-.3-.3-.2Z"/>
        <path class="st1" d="M19.9,26.9c0,.1,0,.1,0,.2,0,0,0,0,0,0,0,.1,0,.2,0,0,0,0,0,0,0-.2Z"/>
        <path class="st1" d="M28.3,35.6h0s0,0,0,0c0,0,0,0,0,0h0s0,0,0,0Z"/>
        <path class="st1" d="M40.3,15.9c.2.3.3.5.4.6,0,0,0-.1-.4-.6Z"/>
        <path class="st1" d="M12,24.6h0c0-.1,0-1.1,0-1.1,0,.3,0,.4,0,.6,0,0,0,.1,0,.2,0,0,0,.1,0,.1h0s0,0,0,0c0,0,0,0,0,0,0,0,0,0,0,0,0,0,0,0,0,.1Z"/>
        <path class="st1" d="M9.7,30.9c-.1,0-.3-.2-.4-.3h0c.6.5,1,.7.4.3Z"/>
        <path class="st1" d="M12,25.6c0,0,0,.2.2.5.1.3.2.6.4,1,0,0,0,0,0-.1,0,0,0,0,0-.3,0-.1-.1-.3-.2-.5,0-.2-.2-.4-.3-.6Z"/>
        <path class="st1" d="M12.7,27.3c.1.2.2.4.3.7,0,0-.1-.3-.3-.7Z"/>
        <path class="st1" d="M13.6,18c-.2.3,0,.2-.2.4,0,.2.2-.3.5-.7.1-.2.2-.3.2-.3,0,0-.2.2-.4.6Z"/>
        <polygon class="st1" points="12.1 26.3 12.1 26 11.9 25.7 11.8 25.6 11.8 25.7 12.1 26.3"/>
        <path class="st1" d="M12.2,20.1l-.2.7v.6c-.1,0-.2.1-.2.3,0-.3.2-.6.2-.9.1-.4.2-.7.2-.7Z"/>
        <path class="st1" d="M11.7,21.7c0,.1,0,.2,0,.3,0,.2,0,.4,0,.6,0,0,0,0,0,.1,0,0,0,0,0-.1,0-.1,0-.4,0-.6,0-.1,0-.2,0-.3Z"/>
        <polygon class="st1" points="11.6 24.6 11.5 24.5 11.5 24.2 11.5 23.3 11.5 24.5 11.6 24.6"/>
        <path class="st1" d="M22.8,12c.2,0,.3-.1.5-.2l.9-.2c.1,0-.2,0-.8.1,0,0,0,0-.1,0-.3.1-.7.2-.5.2Z"/>
        <path class="st1" d="M18.7,13.3c.4-.1.4-.1.6-.2h0c-.2,0-.4,0-.6.2Z"/>
        <path class="st1" d="M22.6,11.9c0,0,.4-.2.6-.2.4,0,.6-.1,0,0,0,0-.2,0-.4.1-.1,0-1.4.6-.2.1Z"/>
        <path class="st1" d="M41,18v-.2s0-.2,0-.2h-.1c0,0,0,.2,0,.2,0,0,0,.1,0,.2Z"/>
        <path class="st1" d="M30.3,30.7c1.7-.2.4-.1,1.9-.4.4-.1-1.2.2-.8.1-1,.2-1.5.2-1.1.3Z"/>
        <path class="st1" d="M31.3,30.5c.2,0,.3,0,.5-.1-.3,0-.4.1-.5.1Z"/>
        <path class="st1" d="M34,7c-.3,0-.6-.1-1-.2h-.1s.1,0,.1,0l.6.2h.4Z"/>
        <path class="st1" d="M31.9,6.8h-.2c0-.1-.7-.1-.7-.1.2,0,.7,0,.9.1Z"/>
        <path class="st1" d="M13.1,50h0s0,0-.1.2c0,.1-.1.3-.2.5l.3-.5v-.3Z"/>
        <polygon class="st1" points="18.3 49.7 18.2 49.9 18.5 49.5 18.3 49.7"/>
        <path class="st1" d="M22,38.1c0,.2,0,.4-.1.6-.1.3-.2.6-.3.9.1-.4.2-.7.3-.9.1-.4.2-.7.1-.6Z"/>
      </g>
    </g>
  </g>
  <polygon class="st0" points="43.1 59.6 42.4 59.6 41.8 59.4 41.1 59.3 40.3 59 39.7 58.6 39 58.3 38.5 57.9 38 57.5 37.6 57.2 37 56.7 36.5 56.3 36 55.6 35.7 55.3 35.3 54.7 34.9 54.1 34.5 53.6 34.2 53 33.9 52.4 33.7 51.8 33.1 50.7 32.9 50 32.7 49.4 32.5 48.8 32.4 48.2 32.1 47.5 32.1 46.9 31.8 45.7 31.6 45.1 31.5 44.5 31.3 43.9 31.1 43.2 31 42.7 30.6 40.8 30.5 40.1 29.9 37.7 29.7 37.1 29.4 36.6 29.2 36 28.8 35.4 28.5 35.1 28.1 34.6 27.6 34.1 26.7 33.3 26.2 33.1 25.6 32.9 25 32.8 24.4 32.7 24.1 32.7 23.9 32.9 23.7 33.2 23.3 34.7 23.2 35.3 23 36.1 22.9 36.7 22.4 38 22.3 38.5 22.1 39.1 21.8 40 21.6 40.8 21.4 41.6 20.8 43.2 20.7 43.8 20.2 45.1 20 45.7 19.8 46.3 19.6 46.9 19.4 47.5 19 48.4 18.5 49.4 18.2 50.2 17.7 51.5 17.3 52.3 16.4 52.9 15.2 53.4 13.8 53.4 12.5 53 11.3 52.3 10.7 51.1 10.8 50 11.2 49.3 11.5 48.8 12 47.6 12.2 47 12.8 45.9 13 45.3 13.2 44.7 13.6 43.5 13.8 42.9 14.2 41.7 14.3 41.1 14.6 40.5 14.7 39.8 14.9 39.4 15 38.7 15.2 37.9 15.4 37.6 15.6 36.8 15.7 36.2 15.9 35.7 16 35.1 16.2 34.3 16.7 32.8 16.9 32 17.1 31.4 17.4 30.1 17.6 29.5 17.8 28.9 18 28.3 18.1 27.7 18.3 27.1 18.5 26.5 18.8 25.2 19 24.6 19.1 24 19.9 21.9 20.1 21.1 20.4 20.3 20.9 19.6 21.2 18.8 21.6 18.2 21.9 17.4 22.5 16.4 23 15.6 23.6 15 25.2 13.5 26.1 12.8 27 12.2 27.7 11.9 28.5 11.8 29.2 11.8 30.1 11.8 30.8 12.1 31.6 12.6 32.1 13.3 32.2 14.3 31.7 15.1 30.5 15.9 30.1 16.3 29.7 16.7 29.3 17.2 29 17.7 28.7 18.3 28.3 18.8 28 19.3 27.8 19.9 27.6 20.4 27.1 21.6 26.8 22.3 26.6 22.8 26.5 23.4 26.1 24.6 25.9 25.2 25.7 25.9 25.5 26.5 25.3 27.1 25.2 27.6 25.2 27.8 25.4 27.9 26 27.9 26.6 27.8 27.4 27.7 29.4 27.6 30.4 27.5 31.1 27.3 31.8 27.2 32.3 27.1 33.5 26.7 34.1 26.5 34.8 26.3 35.3 26 36.4 25.4 36.9 25.1 37.9 24.3 38.3 23.9 38.6 23.5 38.9 23 39.3 22.4 39.8 21.4 40.2 20.2 40.3 19.7 40.5 18.9 40.6 18.1 40.6 17.4 40.5 16.9 40.3 16.3 40.3 15.7 40.1 15.2 39.9 14.7 39.2 13.7 38.5 12.8 38.1 12.4 37.6 12.1 37.1 11.8 36.6 11.5 36 11.3 35.1 10.9 34.3 10.5 33.7 10.3 33.1 10.1 32.5 10 31.9 9.9 31.2 9.8 30.5 9.7 30 9.7 28.6 9.6 28 9.5 24.7 9.9 24.1 10 23.3 10.1 22.9 10.3 22.2 10.5 21.6 10.7 19.7 11.4 19.1 11.7 18.5 11.9 18 12.2 17.5 12.5 16.8 12.9 16.3 13.3 15.9 13.7 15.4 14.1 14.8 14.6 14.4 15 14.1 15.5 13.4 16.6 13.1 17 12.9 17.6 12.7 18.1 12.5 18.7 12.2 19.8 12.2 20.3 12.1 20.9 12.1 22.1 12.3 22.7 12.4 23.2 12.6 23.7 12.9 24.3 13.2 24.9 13.4 25.4 13.7 25.9 14.1 26.6 14.1 27.5 13.8 28.3 13.1 28.9 12.5 29.3 11.7 29.7 10.9 29.8 10 29.6 9.2 29 8.2 28.3 7.4 27.6 7 27 6.4 26.2 6 25.4 5.7 24.8 5.5 24.1 5.3 23.5 5.2 22.5 5 21.3 5 20.1 5.2 19.1 5.2 18.4 5.5 17.2 5.7 16.6 5.9 15.9 6.2 15.3 6.5 14.7 7.2 13.6 7.8 12.8 8.4 12.1 9.8 10.6 10.3 10.1 12.3 8.4 12.9 8 13.5 7.7 14.2 7.4 15 7 15.8 6.6 16.5 6.3 17.1 6.1 17.8 5.8 20.3 5 21 4.9 22.3 4.6 23.6 4.4 24.9 4.2 25.8 4.2 26.2 4.2 28.3 4 29.1 4 29.5 4.1 30.3 4.1 31 4 33 4.2 33.7 4.4 34.5 4.5 35.5 4.7 36.3 5 36.8 5.1 38.2 5.5 38.8 5.7 40.6 6.6 41.2 6.9 42.3 7.6 43.2 8.2 44 8.8 45.3 10.3 45.8 10.9 46.1 11.6 46.9 13.2 47.2 14 47.3 14.4 47.6 15.1 47.7 15.8 47.8 16.5 47.8 17.8 47.7 18.5 47.6 19.2 47.5 20.1 47.3 20.9 47 21.7 46.9 22.2 46.7 22.8 46.4 23.5 46 24.1 45.7 24.6 45.4 25.2 45 25.7 44.5 26.3 44 26.7 43.5 27.1 43.1 27.5 42.5 28 41.9 28.4 41.4 28.8 40.6 29.3 39.7 29.7 39 30 38 30.3 37.2 30.6 36.5 30.9 35.5 31.1 34.6 31.4 33.9 31.4 33.8 31.5 34.4 32.2 34.9 32.8 35.4 34.1 35.8 34.7 36.1 35.3 36.3 35.9 36.6 36.6 36.7 37.4 37 38.6 37.2 39.3 37.4 39.9 37.5 40.9 37.7 41.7 37.8 42.4 37.9 43 38 43.5 38.1 44.1 38.3 44.7 38.5 45.4 38.6 45.9 38.8 46.5 39 47.1 39.2 47.6 39.4 48.2 39.7 48.7 39.9 49.2 40.3 49.8 41.1 51.4 41.9 52.2 43.3 53.3 43.8 53.6 44.3 53.8 44.9 54 45.6 54.1 46 54.2 46.9 54.4 47.5 55.1 47.7 56 47.7 56.7 47.5 57.4 47.2 58.1 46.6 58.7 45.9 59.2 44.9 59.6 43.9 59.7 43.1 59.6"/>
</svg>